<svg xmlns="http://www.w3.org/2000/svg" xmlns:xlink="http://www.w3.org/1999/xlink" xmlns:lucid="lucid" width="1297.15" height="929.21"><g transform="translate(17.150000000000006 -30.794762353648025)" lucid:page-tab-id="JRxCMtrD3.oq"><path d="M0 0h1360v1760H0z" fill="#fff"/><path d="M1159.75 559.75c0 10.9-8.84 19.75-19.75 19.75-10.9 0-19.75-8.84-19.75-19.75 0-10.9 8.84-19.75 19.75-19.75 10.9 0 19.75 8.84 19.75 19.75z" stroke="#000" stroke-width="2"/><path d="M1100 540h80v158h-80z" fill="none"/><path d="M1140 579.5v55.3l40 63.2m-40-63.2l-40 63.2m0-98.75h80" stroke="#000" stroke-width="2" fill="none"/><use xlink:href="#a" transform="matrix(1,0,0,1,1020,698) translate(45.625 14.6)"/><use xlink:href="#b" transform="matrix(1,0,0,1,1020,698) translate(88.625 14.6)"/><path d="M1100 630H920" stroke="#000" stroke-width="2" fill="none"/><path/><path d="M920 631h-.03l.03-1v-.38l-.03-.62h.03z"/><path d="M119.75 559.75c0 10.9-8.84 19.75-19.75 19.75-10.9 0-19.75-8.84-19.75-19.75 0-10.9 8.84-19.75 19.75-19.75 10.9 0 19.75 8.84 19.75 19.75z" stroke="#000" stroke-width="2" fill="#fff"/><path d="M60 540h80v158H60z" fill="none"/><path d="M100 579.5v55.3l40 63.2m-40-63.2L60 698m0-98.75h80" stroke="#000" stroke-width="2" fill="none"/><use xlink:href="#c" transform="matrix(1,0,0,1,-20,698) translate(23.849999999999994 14.6)"/><use xlink:href="#d" transform="matrix(1,0,0,1,-20,698) translate(72.44999999999999 14.6)"/><use xlink:href="#e" transform="matrix(1,0,0,1,-20,698) translate(181.20000000000002 14.6)"/><path d="M920 630c0 33.14-35.82 60-80 60s-80-26.86-80-60 35.82-60 80-60 80 26.86 80 60z" stroke="#000" stroke-width="2"/><use xlink:href="#f" transform="matrix(1,0,0,1,760,570) translate(27.60499999999999 63.15)"/><use xlink:href="#g" transform="matrix(1,0,0,1,760,570) translate(86.505 63.15)"/><path d="M400 630c0 33.14-35.82 60-80 60s-80-26.86-80-60 35.82-60 80-60 80 26.86 80 60z" stroke="#000" stroke-width="2" fill="#fff"/><use xlink:href="#h" transform="matrix(1,0,0,1,240,570) translate(27.57999999999999 63.15)"/><use xlink:href="#i" transform="matrix(1,0,0,1,240,570) translate(86.53 63.15)"/><path d="M140 630h100" stroke="#000" stroke-width="2" fill="none"/><path/><path d="M240 630v.38l.03.62H240v-2h.03z"/><path d="M740 880c0 33.14-35.82 60-80 60s-80-26.86-80-60 35.82-60 80-60 80 26.86 80 60z" stroke="#000" stroke-width="2" fill="#fff"/><use xlink:href="#j" transform="matrix(1,0,0,1,580,820) translate(55.055 51.9)"/><use xlink:href="#k" transform="matrix(1,0,0,1,580,820) translate(32.105 73.5)"/><path d="M571.52 878.9l8.5.1-.03 2-8.53-.1-1.5-.05.1-2zm-16.9-.7l5.47.23-.1 2-5.5-.23-14.44-1.2.17-2zm-32.67-3.42l8.4 1.06-.24 2-8.44-1.08-11.33-1.9.33-2zm-30.2-5.74l9.16 1.94-.4 1.96-9.2-1.95-10.27-2.65.5-1.93zm-27.02-7.52l7.24 2.18-.58 1.9-7.3-2.18-11.7-4.08.66-1.9zm-34.2-13.47l10.58 4.7 2.7 1.07-.73 1.86-2.73-1.08-10.66-4.74-4.87-2.42.9-1.8zm-27.27-14.93l8.4 5.08 5.22 2.87-.97 1.75-5.24-2.9-8.47-5.1-3.47-2.3 1.1-1.68zM381.7 817.5l6.62 5.25 3.35 2.43-1.17 1.62-3.4-2.46-6.7-5.3-5.52-4.78 1.3-1.52zm-21.95-21.4l4.86 5.4 4.38 4.46-1.43 1.4-4.4-4.5-4.9-5.46-4.1-4.93 1.54-1.28zm-19.3-27.7l3.25 5.66 3.55 5.6 2.5 3.6-1.63 1.15-2.54-3.64-3.6-5.66-3.3-5.72-1.07-2.07 1.78-.9zm-10.48-23.5l2.24 6.04 2.5 5.92.3.6-1.82.86-.3-.64-2.53-6-2.27-6.12-1.96-6.03 1.9-.62zm-7.6-32.58l1.03 6.9 1.27 6.7.8 3.43-1.94.46-.8-3.47-1.3-6.77-1.04-7-.27-2.53 2-.2zm-1.2-14.58l.13 2.18-2 .12-.14-2.22-.16-7.8 2-.04z"/><path d="M319 690.04l1-.04h.1zM580.04 878.84L580 880v.38l.03.75-17 9.5-.97-1.74 15.98-8.95-15.53-9.7 1.06-1.7z"/><path d="M479.75 219.75c0 10.9-8.84 19.75-19.75 19.75-10.9 0-19.75-8.84-19.75-19.75 0-10.9 8.84-19.75 19.75-19.75 10.9 0 19.75 8.84 19.75 19.75z" stroke="#000" stroke-width="2" fill="#fff"/><path d="M420 200h80v158h-80z" fill="none"/><path d="M460 239.5v55.3l40 63.2m-40-63.2L420 358m0-98.75h80" stroke="#000" stroke-width="2" fill="none"/><use xlink:href="#l" transform="matrix(1,0,0,1,340,358) translate(91.55 14.6)"/><path d="M860 300c0 33.14-35.82 60-80 60s-80-26.86-80-60 35.82-60 80-60 80 26.86 80 60z" stroke="#000" stroke-width="2" fill="#fff"/><use xlink:href="#m" transform="matrix(1,0,0,1,700,240) translate(34.07999999999999 63.15)"/><use xlink:href="#i" transform="matrix(1,0,0,1,700,240) translate(80.03 63.15)"/><path d="M862.04 561.48l-1.42 9.48-1.98-.3 1.42-9.48zm3.87-28.54l-1.4 12.2-1.04 6.85-1.97-.3 1-6.82 1.42-12.17zm2.68-28.67l-1.12 15.35-.45 3.8-1.97-.23.43-3.77 1.12-15.3zm.63-17l-.2 7.38-2-.06.2-7.34-.12-11.8 2-.03zm-1.7-33.74l.98 10.27.1 2.02-2 .1-.1-1.97-.97-10.2-.93-6.8 1.98-.28zm-5.15-28.5l2.1 9.3.5 2.85-1.96.35-.52-2.8-2.07-9.23-1.76-6.55 1.94-.52zm-9.92-30.8h-2.16l-.96-2.33 1.86-.76zm-8.62-19.66l3.56 7.73-1.82.83-3.53-7.68-4.85-9.5 1.78-.92zm-9.5-17.98l-1.74.97-4.72-8.34 1.74-1z"/><path d="M829.58 348.24l-1.74 1-.5-.88.32-.16 1.42-.85zM859.92 568.87l12.2-14.98 1.54 1.25-13.63 16.76-.35-.07-.76-.12-8.1-19.98 1.85-.75z"/><use xlink:href="#n" transform="matrix(1,0,0,1,799.8920325367878,394.2313097050195) translate(0 14.4)"/><path d="M500 290h200.1" stroke="#000" stroke-width="2" fill="none"/><path/><path d="M700.9 291h-.8v-2h1.25z"/><path d="M600 630c0 33.14-35.82 60-80 60s-80-26.86-80-60 35.82-60 80-60 80 26.86 80 60z" stroke="#000" stroke-width="2"/><use xlink:href="#o" transform="matrix(1,0,0,1,440,570) translate(13.604999999999999 63.15)"/><use xlink:href="#p" transform="matrix(1,0,0,1,440,570) translate(50.605 63.15)"/><path d="M760 631h-10.6v-2H760zm-133.45 0h-4.35v-2h4.35zm-14.95 0H601v-2h10.6zm127.2 0h-4.35v-2h4.35zM760.03 631l-.03-.62V629z"/><path d="M618.72 620.68L602.96 630l15.76 9.32-1 1.72-17.74-10.48.02-.56V629.42l17.7-10.46z"/><use xlink:href="#q" transform="matrix(1,0,0,1,626.5500044413208,619.2) translate(0 14.4)"/><path d="M1070 300c0 33.14-35.82 60-80 60s-80-26.86-80-60 35.82-60 80-60 80 26.86 80 60z" stroke="#000" stroke-width="2" fill="#fff"/><use xlink:href="#r" transform="matrix(1,0,0,1,910,240) translate(54.529999999999994 51.9)"/><use xlink:href="#s" transform="matrix(1,0,0,1,910,240) translate(27.57999999999999 73.5)"/><path d="M1260 300c0 33.14-35.82 60-80 60s-80-26.86-80-60 35.82-60 80-60 80 26.86 80 60z" stroke="#000" stroke-width="2" fill="#fff"/><use xlink:href="#t" transform="matrix(1,0,0,1,1100,240) translate(48.23 51.9)"/><use xlink:href="#k" transform="matrix(1,0,0,1,1100,240) translate(32.105 73.5)"/><path d="M904.74 579.43l-6.3 8.35-1.6-1.2 6.3-8.35zm18.82-25.15l-1.5 2.15-11.03 14.64-1.6-1.2 11-14.62 1.5-2.12zm17.76-25.92l-3.28 5.16-8.5 12.18-1.64-1.15 8.47-12.14 3.26-5.1zm16.12-27l-1.34 2.55-7.73 13.38-1.44 2.25-1.68-1.07 1.4-2.22 7.7-13.3 1.3-2.52zm13.45-28.43l-3.47 8.23-5.13 10.9-1.8-.87 5.1-10.85 3.45-8.2zm10.04-29.83l-2.02 7.24-3.3 10.2-.97 2.58-1.88-.7.95-2.54 3.3-10.12 2-7.2zm5.57-25.27l-2.16 11.36-.87 3.7-1.94-.45.86-3.68 2.14-11.27.5-3.32h2zm3.9-36.86l-.7 11.26-.03.35h-2l.05-.5.7-11.23zm.6-20.95l-.2 10.46-2-.04.2-10.46z"/><path d="M990.9 360h-.9l-1-.02zM900.87 567.42l-2.04 18.2 16.93-7 .76 1.86-19.02 7.85-.9-.7 2.28-20.43z"/><use xlink:href="#n" transform="matrix(1,0,0,1,932.0629985206438,392.579303403138) translate(0 14.4)"/><path d="M922.68 600.22l-8.64 5.06-1-1.73 8.63-5.05zm25.94-15.16l-17.3 10.1-1-1.72 17.3-10.1zm25.93-15.16l-17.3 10.1-1-1.72 17.3-10.1zm25.94-15.17l-17.3 10.1-1-1.72 17.28-10.1zm25.6-15.8l-13.62 8.8-3.35 1.95-1-1.73 3.3-1.94 13.57-8.75zm24.85-16.92l-14.03 9.94-2.42 1.56-1.08-1.68 2.38-1.54 14-9.9zm23.64-18.65l-7.92 6.67-7.7 5.95-1.2-1.6 7.65-5.9 7.87-6.65zm21.88-20.74l-1.27 1.4-8.27 8.26-4.82 4.4-1.34-1.46 4.8-4.4 8.2-8.2 1.25-1.34zm19.43-23.04l-.2.3-6.26 8.04-6.17 7.3-1.53-1.3 6.15-7.26 6.18-7.96.2-.28zm16.4-25.3l-.32.58-5.1 8.57-5.15 7.95-1.68-1.1 5.15-7.9 5.04-8.5.3-.55zm9-17.7l-4.27 8.82-1.8-.88 4.25-8.76 1.16-2.68h2.18zm13.95-37.92l-1.8 6.24-2.23 6.58h-2.1l2.4-7.18 1.8-6.2zm5.06-19.42l-2.4 9.72-1.93-.47 2.4-9.73zM1160.32 358.17l.24.04-.25 1.02-1.93-.48.23-.95z"/><path d="M924.13 587.42l-8.9 16 18.3.1v2l-20.57-.1-.58-1 10-17.97z"/><use xlink:href="#n" transform="matrix(1,0,0,1,1090.7379715442512,391.46459969906306) translate(0 14.4)"/><path d="M617.5 820.42l2.83 6.15.1.23-1.83.8-.1-.2-2.8-6.1-1.78-3.46 1.78-.9zm-14.6-24.38l4.34 6.36 3.1 4.97-1.7 1.06-3.07-4.94-4.3-6.3-4.94-6.6 1.6-1.2zm-12.1-14.94l-1.5 1.3-14.22-16.47 1.5-1.3zm-48.16-66.88l1.8 4.35 1.97 4.3 2.23 4.33 1.73 3.04-1.74.98-1.75-3.07-2.25-4.4-2.03-4.38-1.83-4.42-1.3-3.6 1.87-.7zm-5.55-19l1.15 5.13-1.95.44-1.17-5.18-1-5.52 1.96-.36z"/><path d="M536.08 689.7l-1.95.44-.24-1.05.27-.04 1.7-.28zM622.03 807.33l-1.56 20.54-1.05.46-17.2-11.23 1.1-1.68 15.32 10 1.4-18.24z"/><g><use xlink:href="#u" transform="matrix(1,0,0,1,500.755878411733,738.3344214208755) translate(0 14.4)"/></g><path d="M500 258.24l.1-5.08.32-4.93.5-4.8.7-4.67.86-4.57 1.05-4.5 1.23-4.4 1.4-4.34 1.6-4.28 1.8-4.25 1.98-4.2 2.2-4.2 2.4-4.18 2.65-4.17 2.9-4.17 3.16-4.17 3.47-4.2 3.8-4.2 4.15-4.25 4.54-4.26 4.98-4.3 5.45-4.3 5.97-4.35 6.55-4.35 7.2-4.36 7.9-4.33 8.66-4.3 9.5-4.22 10.38-4.1 11.35-3.95 12.32-3.72 13.3-3.4 14.3-3.04 15.16-2.57 15.95-2.02 16.56-1.37 16.96-.7h17.1l16.98.7 16.62 1.4 16.06 2.02 15.3 2.6 14.47 3.06 13.52 3.48 12.56 3.8 11.62 4.03 10.7 4.24 9.8 4.37 9 4.47 8.22 4.52 7.53 4.55 6.9 4.58 6.3 4.58 5.8 4.6 5.3 4.57 4.86 4.57 4.46 4.56 4.1 4.55 3.76 4.55 3.45 4.55 3.18 4.56 2.9 4.6 2.66 4.6 2.43 4.62 2.2 4.68 1.98 4.73 1.8 4.8 1.57 4.87 1.38 4.96.83 3.4" stroke="#000" stroke-width="2" fill="none"/><path d="M501 258.3l-.2 3-.8-.05v-3zM969.9 241.92l-.4.07-1.57.35-.26-.9 1.92-.57z"/><path d="M500 258.24l.14-6.47.4-6.3.64-6.2.9-6.04 1.13-5.96 1.4-5.88 1.62-5.83 1.87-5.77 2.13-5.74 2.4-5.72 2.7-5.73 3-5.73 3.33-5.76 3.68-5.8 4.07-5.85 4.5-5.92 4.98-6 5.48-6.1 6.06-6.18 6.7-6.3 7.44-6.4 8.24-6.53 9.15-6.64 10.18-6.76 11.34-6.86 12.63-6.94 14.08-6.98 15.67-6.97 17.43-6.9 19.3-6.7 21.26-6.42 23.25-5.96 25.14-5.35L779.1 49l28.18-3.54 29.04-2.44 29.3-1.22h28.92l27.97 1.16 26.54 2.23 24.75 3.1 22.77 3.86 20.76 4.4 18.75 4.8 16.87 5.1 15.13 5.26 13.53 5.36 12.13 5.4 10.84 5.37 9.72 5.34 8.72 5.28 7.86 5.2 7.07 5.15 6.4 5.06 5.78 4.98 5.24 4.92 4.76 4.86 4.32 4.8 3.93 4.75 3.58 4.73 3.25 4.68 2.98 4.67 2.68 4.66 2.44 4.66 2.2 4.66 1.97 4.7 1.76 4.72 1.55 4.78 1.35 4.85 1.16 4.93.94 5 .76 5.14.55 5.25.34 5.4.1 5.57-.12 5.76-.37 6-.65 6.22-.77 5.36" stroke="#000" stroke-width="2" fill="none"/><path d="M501 258.3l-.15 3-.85-.05v-3zM1195.07 240.04l-.1 1.05-1.65-.27-.34-.03.1-.97z"/><defs><path d="M30 0v-248h33v221h125V0H30" id="v"/><path d="M141-36C126-15 110 5 73 4 37 3 15-17 15-53c-1-64 63-63 125-63 3-35-9-54-41-54-24 1-41 7-42 31l-33-3c5-37 33-52 76-52 45 0 72 20 72 64v82c-1 20 7 32 28 27v20c-31 9-61-2-59-35zM48-53c0 20 12 33 32 33 41-3 63-29 60-74-43 2-92-5-92 41" id="w"/><path d="M9 0v-24l116-142H16v-24h144v24L44-24h123V0H9" id="x"/><path d="M179-190L93 31C79 59 56 82 12 73V49c39 6 53-20 64-50L1-190h34L92-34l54-156h33" id="y"/><g id="a"><use transform="matrix(0.05,0,0,0.05,0,0)" xlink:href="#v"/><use transform="matrix(0.05,0,0,0.05,10,0)" xlink:href="#w"/><use transform="matrix(0.05,0,0,0.05,20,0)" xlink:href="#x"/><use transform="matrix(0.05,0,0,0.05,29,0)" xlink:href="#y"/></g><path d="M205 0l-28-72H64L36 0H1l101-248h38L239 0h-34zm-38-99l-47-123c-12 45-31 82-46 123h93" id="z"/><path d="M85-194c31 0 48 13 60 33l-1-100h32l1 261h-30c-2-10 0-23-3-31C134-8 116 4 85 4 32 4 16-35 15-94c0-66 23-100 70-100zm9 24c-40 0-46 34-46 75 0 40 6 74 45 74 42 0 51-32 51-76 0-42-9-74-50-73" id="A"/><path d="M210-169c-67 3-38 105-44 169h-31v-121c0-29-5-50-35-48C34-165 62-65 56 0H25l-1-190h30c1 10-1 24 2 32 10-44 99-50 107 0 11-21 27-35 58-36 85-2 47 119 55 194h-31v-121c0-29-5-49-35-48" id="B"/><path d="M24-231v-30h32v30H24zM24 0v-190h32V0H24" id="C"/><path d="M117-194c89-4 53 116 60 194h-32v-121c0-31-8-49-39-48C34-167 62-67 57 0H25l-1-190h30c1 10-1 24 2 32 11-22 29-35 61-36" id="D"/><path d="M135-143c-3-34-86-38-87 0 15 53 115 12 119 90S17 21 10-45l28-5c4 36 97 45 98 0-10-56-113-15-118-90-4-57 82-63 122-42 12 7 21 19 24 35" id="E"/><path d="M59-47c-2 24 18 29 38 22v24C64 9 27 4 27-40v-127H5v-23h24l9-43h21v43h35v23H59v120" id="F"/><path d="M114-163C36-179 61-72 57 0H25l-1-190h30c1 12-1 29 2 39 6-27 23-49 58-41v29" id="G"/><path d="M100-194c62-1 85 37 85 99 1 63-27 99-86 99S16-35 15-95c0-66 28-99 85-99zM99-20c44 1 53-31 53-75 0-43-8-75-51-75s-53 32-53 75 10 74 51 75" id="H"/><g id="b"><use transform="matrix(0.05,0,0,0.05,0,0)" xlink:href="#z"/><use transform="matrix(0.05,0,0,0.05,12,0)" xlink:href="#A"/><use transform="matrix(0.05,0,0,0.05,22,0)" xlink:href="#B"/><use transform="matrix(0.05,0,0,0.05,36.95,0)" xlink:href="#C"/><use transform="matrix(0.05,0,0,0.05,40.900000000000006,0)" xlink:href="#D"/><use transform="matrix(0.05,0,0,0.05,50.900000000000006,0)" xlink:href="#C"/><use transform="matrix(0.05,0,0,0.05,54.85,0)" xlink:href="#E"/><use transform="matrix(0.05,0,0,0.05,63.85,0)" xlink:href="#F"/><use transform="matrix(0.05,0,0,0.05,68.85000000000001,0)" xlink:href="#G"/><use transform="matrix(0.05,0,0,0.05,74.80000000000001,0)" xlink:href="#w"/><use transform="matrix(0.05,0,0,0.05,84.80000000000001,0)" xlink:href="#F"/><use transform="matrix(0.05,0,0,0.05,89.80000000000001,0)" xlink:href="#H"/><use transform="matrix(0.05,0,0,0.05,99.80000000000001,0)" xlink:href="#G"/></g><path d="M240 0l2-218c-23 76-54 145-80 218h-23L58-218 59 0H30v-248h44l77 211c21-75 51-140 76-211h43V0h-30" id="I"/><path d="M33 0v-248h34V0H33" id="J"/><path d="M185-189c-5-48-123-54-124 2 14 75 158 14 163 119 3 78-121 87-175 55-17-10-28-26-33-46l33-7c5 56 141 63 141-1 0-78-155-14-162-118-5-82 145-84 179-34 5 7 8 16 11 25" id="K"/><path d="M30-248c87 1 191-15 191 75 0 78-77 80-158 76V0H30v-248zm33 125c57 0 124 11 124-50 0-59-68-47-124-48v98" id="L"/><g id="c"><use transform="matrix(0.05,0,0,0.05,0,0)" xlink:href="#I"/><use transform="matrix(0.05,0,0,0.05,14.950000000000001,0)" xlink:href="#J"/><use transform="matrix(0.05,0,0,0.05,19.950000000000003,0)" xlink:href="#K"/><use transform="matrix(0.05,0,0,0.05,31.950000000000003,0)" xlink:href="#L"/></g><g id="d"><use transform="matrix(0.05,0,0,0.05,0,0)" xlink:href="#w"/><use transform="matrix(0.05,0,0,0.05,10,0)" xlink:href="#A"/><use transform="matrix(0.05,0,0,0.05,20,0)" xlink:href="#B"/><use transform="matrix(0.05,0,0,0.05,34.95,0)" xlink:href="#C"/><use transform="matrix(0.05,0,0,0.05,38.900000000000006,0)" xlink:href="#D"/><use transform="matrix(0.05,0,0,0.05,48.900000000000006,0)" xlink:href="#C"/><use transform="matrix(0.05,0,0,0.05,52.85,0)" xlink:href="#E"/><use transform="matrix(0.05,0,0,0.05,61.85,0)" xlink:href="#F"/><use transform="matrix(0.05,0,0,0.05,66.85000000000001,0)" xlink:href="#G"/><use transform="matrix(0.05,0,0,0.05,72.80000000000001,0)" xlink:href="#w"/><use transform="matrix(0.05,0,0,0.05,82.80000000000001,0)" xlink:href="#F"/><use transform="matrix(0.05,0,0,0.05,87.80000000000001,0)" xlink:href="#H"/><use transform="matrix(0.05,0,0,0.05,97.80000000000001,0)" xlink:href="#G"/></g><path d="M84 4C-5 8 30-112 23-190h32v120c0 31 7 50 39 49 72-2 45-101 50-169h31l1 190h-30c-1-10 1-25-2-33-11 22-28 36-60 37" id="M"/><path d="M100-194c63 0 86 42 84 106H49c0 40 14 67 53 68 26 1 43-12 49-29l28 8c-11 28-37 45-77 45C44 4 14-33 15-96c1-61 26-98 85-98zm52 81c6-60-76-77-97-28-3 7-6 17-6 28h103" id="N"/><g id="e"><use transform="matrix(0.05,0,0,0.05,0,0)" xlink:href="#M"/><use transform="matrix(0.05,0,0,0.05,10,0)" xlink:href="#E"/><use transform="matrix(0.05,0,0,0.05,19,0)" xlink:href="#N"/><use transform="matrix(0.05,0,0,0.05,29,0)" xlink:href="#G"/></g><path fill="#fff" d="M212-179c-10-28-35-45-73-45-59 0-87 40-87 99 0 60 29 101 89 101 43 0 62-24 78-52l27 14C228-24 195 4 139 4 59 4 22-46 18-125c-6-104 99-153 187-111 19 9 31 26 39 46" id="O"/><path fill="#fff" d="M114-163C36-179 61-72 57 0H25l-1-190h30c1 12-1 29 2 39 6-27 23-49 58-41v29" id="P"/><path fill="#fff" d="M100-194c63 0 86 42 84 106H49c0 40 14 67 53 68 26 1 43-12 49-29l28 8c-11 28-37 45-77 45C44 4 14-33 15-96c1-61 26-98 85-98zm52 81c6-60-76-77-97-28-3 7-6 17-6 28h103" id="Q"/><path fill="#fff" d="M141-36C126-15 110 5 73 4 37 3 15-17 15-53c-1-64 63-63 125-63 3-35-9-54-41-54-24 1-41 7-42 31l-33-3c5-37 33-52 76-52 45 0 72 20 72 64v82c-1 20 7 32 28 27v20c-31 9-61-2-59-35zM48-53c0 20 12 33 32 33 41-3 63-29 60-74-43 2-92-5-92 41" id="R"/><path fill="#fff" d="M59-47c-2 24 18 29 38 22v24C64 9 27 4 27-40v-127H5v-23h24l9-43h21v43h35v23H59v120" id="S"/><g id="f"><use transform="matrix(0.05,0,0,0.05,0,0)" xlink:href="#O"/><use transform="matrix(0.05,0,0,0.05,12.950000000000001,0)" xlink:href="#P"/><use transform="matrix(0.05,0,0,0.05,18.900000000000002,0)" xlink:href="#Q"/><use transform="matrix(0.05,0,0,0.05,28.900000000000002,0)" xlink:href="#R"/><use transform="matrix(0.05,0,0,0.05,38.900000000000006,0)" xlink:href="#S"/><use transform="matrix(0.05,0,0,0.05,43.900000000000006,0)" xlink:href="#Q"/></g><path fill="#fff" d="M233-177c-1 41-23 64-60 70L243 0h-38l-65-103H63V0H30v-248c88 3 205-21 203 71zM63-129c60-2 137 13 137-47 0-61-80-42-137-45v92" id="T"/><path fill="#fff" d="M100-194c62-1 85 37 85 99 1 63-27 99-86 99S16-35 15-95c0-66 28-99 85-99zM99-20c44 1 53-31 53-75 0-43-8-75-51-75s-53 32-53 75 10 74 51 75" id="U"/><path fill="#fff" d="M24 0v-261h32V0H24" id="V"/><path fill="#fff" d="M135-143c-3-34-86-38-87 0 15 53 115 12 119 90S17 21 10-45l28-5c4 36 97 45 98 0-10-56-113-15-118-90-4-57 82-63 122-42 12 7 21 19 24 35" id="W"/><g id="g"><use transform="matrix(0.05,0,0,0.05,0,0)" xlink:href="#T"/><use transform="matrix(0.05,0,0,0.05,12.950000000000001,0)" xlink:href="#U"/><use transform="matrix(0.05,0,0,0.05,22.950000000000003,0)" xlink:href="#V"/><use transform="matrix(0.05,0,0,0.05,26.900000000000002,0)" xlink:href="#Q"/><use transform="matrix(0.05,0,0,0.05,36.900000000000006,0)" xlink:href="#W"/></g><path d="M177-190C167-65 218 103 67 71c-23-6-38-20-44-43l32-5c15 47 100 32 89-28v-30C133-14 115 1 83 1 29 1 15-40 15-95c0-56 16-97 71-98 29-1 48 16 59 35 1-10 0-23 2-32h30zM94-22c36 0 50-32 50-73 0-42-14-75-50-75-39 0-46 34-46 75s6 73 46 73" id="X"/><g id="h"><use transform="matrix(0.05,0,0,0.05,0,0)" xlink:href="#z"/><use transform="matrix(0.05,0,0,0.05,12,0)" xlink:href="#E"/><use transform="matrix(0.05,0,0,0.05,21,0)" xlink:href="#E"/><use transform="matrix(0.05,0,0,0.05,30,0)" xlink:href="#C"/><use transform="matrix(0.05,0,0,0.05,33.95,0)" xlink:href="#X"/><use transform="matrix(0.05,0,0,0.05,43.95,0)" xlink:href="#D"/></g><path d="M233-177c-1 41-23 64-60 70L243 0h-38l-65-103H63V0H30v-248c88 3 205-21 203 71zM63-129c60-2 137 13 137-47 0-61-80-42-137-45v92" id="Y"/><path d="M24 0v-261h32V0H24" id="Z"/><g id="i"><use transform="matrix(0.05,0,0,0.05,0,0)" xlink:href="#Y"/><use transform="matrix(0.05,0,0,0.05,12.950000000000001,0)" xlink:href="#H"/><use transform="matrix(0.05,0,0,0.05,22.950000000000003,0)" xlink:href="#Z"/><use transform="matrix(0.05,0,0,0.05,26.900000000000002,0)" xlink:href="#N"/><use transform="matrix(0.05,0,0,0.05,36.900000000000006,0)" xlink:href="#E"/></g><path d="M106-169C34-169 62-67 57 0H25v-261h32l-1 103c12-21 28-36 61-36 89 0 53 116 60 194h-32v-121c2-32-8-49-39-48" id="aa"/><g id="j"><use transform="matrix(0.05,0,0,0.05,0,0)" xlink:href="#J"/><use transform="matrix(0.05,0,0,0.05,5,0)" xlink:href="#D"/><use transform="matrix(0.05,0,0,0.05,15,0)" xlink:href="#aa"/><use transform="matrix(0.05,0,0,0.05,25,0)" xlink:href="#N"/><use transform="matrix(0.05,0,0,0.05,35,0)" xlink:href="#G"/><use transform="matrix(0.05,0,0,0.05,40.95,0)" xlink:href="#C"/><use transform="matrix(0.05,0,0,0.05,44.900000000000006,0)" xlink:href="#F"/></g><path d="M115-194c55 1 70 41 70 98S169 2 115 4C84 4 66-9 55-30l1 105H24l-1-265h31l2 30c10-21 28-34 59-34zm-8 174c40 0 45-34 45-75s-6-73-45-74c-42 0-51 32-51 76 0 43 10 73 51 73" id="ab"/><g id="k"><use transform="matrix(0.05,0,0,0.05,0,0)" xlink:href="#ab"/><use transform="matrix(0.05,0,0,0.05,10,0)" xlink:href="#N"/><use transform="matrix(0.05,0,0,0.05,20,0)" xlink:href="#G"/><use transform="matrix(0.05,0,0,0.05,25.950000000000003,0)" xlink:href="#B"/><use transform="matrix(0.05,0,0,0.05,40.9,0)" xlink:href="#C"/><use transform="matrix(0.05,0,0,0.05,44.85,0)" xlink:href="#E"/><use transform="matrix(0.05,0,0,0.05,53.85,0)" xlink:href="#E"/><use transform="matrix(0.05,0,0,0.05,62.85,0)" xlink:href="#C"/><use transform="matrix(0.05,0,0,0.05,66.8,0)" xlink:href="#H"/><use transform="matrix(0.05,0,0,0.05,76.8,0)" xlink:href="#D"/><use transform="matrix(0.05,0,0,0.05,86.8,0)" xlink:href="#E"/></g><g id="l"><use transform="matrix(0.05,0,0,0.05,0,0)" xlink:href="#z"/><use transform="matrix(0.05,0,0,0.05,12,0)" xlink:href="#M"/><use transform="matrix(0.05,0,0,0.05,22,0)" xlink:href="#A"/><use transform="matrix(0.05,0,0,0.05,32,0)" xlink:href="#C"/><use transform="matrix(0.05,0,0,0.05,35.95,0)" xlink:href="#F"/><use transform="matrix(0.05,0,0,0.05,40.95,0)" xlink:href="#H"/><use transform="matrix(0.05,0,0,0.05,50.95,0)" xlink:href="#G"/></g><g id="m"><use transform="matrix(0.05,0,0,0.05,0,0)" xlink:href="#z"/><use transform="matrix(0.05,0,0,0.05,12,0)" xlink:href="#M"/><use transform="matrix(0.05,0,0,0.05,22,0)" xlink:href="#A"/><use transform="matrix(0.05,0,0,0.05,32,0)" xlink:href="#C"/><use transform="matrix(0.05,0,0,0.05,35.95,0)" xlink:href="#F"/></g><path d="M18-100v-36l175-74v27L42-118l151 64v27" id="ac"/><path d="M108 0H70L1-190h34L89-25l56-165h34" id="ad"/><path d="M18-27v-27l151-64-151-65v-27l175 74v36" id="ae"/><g id="n"><use transform="matrix(0.05,0,0,0.05,0,0)" xlink:href="#ac"/><use transform="matrix(0.05,0,0,0.05,10.5,0)" xlink:href="#ac"/><use transform="matrix(0.05,0,0,0.05,21,0)" xlink:href="#ab"/><use transform="matrix(0.05,0,0,0.05,31,0)" xlink:href="#G"/><use transform="matrix(0.05,0,0,0.05,36.95,0)" xlink:href="#N"/><use transform="matrix(0.05,0,0,0.05,46.95,0)" xlink:href="#ad"/><use transform="matrix(0.05,0,0,0.05,55.95,0)" xlink:href="#N"/><use transform="matrix(0.05,0,0,0.05,65.95,0)" xlink:href="#D"/><use transform="matrix(0.05,0,0,0.05,75.95,0)" xlink:href="#F"/><use transform="matrix(0.05,0,0,0.05,80.95,0)" xlink:href="#E"/><use transform="matrix(0.05,0,0,0.05,89.95,0)" xlink:href="#ae"/><use transform="matrix(0.05,0,0,0.05,100.45,0)" xlink:href="#ae"/></g><path fill="#fff" d="M205 0l-28-72H64L36 0H1l101-248h38L239 0h-34zm-38-99l-47-123c-12 45-31 82-46 123h93" id="af"/><path fill="#fff" d="M85-194c31 0 48 13 60 33l-1-100h32l1 261h-30c-2-10 0-23-3-31C134-8 116 4 85 4 32 4 16-35 15-94c0-66 23-100 70-100zm9 24c-40 0-46 34-46 75 0 40 6 74 45 74 42 0 51-32 51-76 0-42-9-74-50-73" id="ag"/><g id="o"><use transform="matrix(0.05,0,0,0.05,0,0)" xlink:href="#af"/><use transform="matrix(0.05,0,0,0.05,12,0)" xlink:href="#ag"/><use transform="matrix(0.05,0,0,0.05,22,0)" xlink:href="#ag"/></g><path fill="#fff" d="M115-194c55 1 70 41 70 98S169 2 115 4C84 4 66-9 55-30l1 105H24l-1-265h31l2 30c10-21 28-34 59-34zm-8 174c40 0 45-34 45-75s-6-73-45-74c-42 0-51 32-51 76 0 43 10 73 51 73" id="ah"/><path fill="#fff" d="M210-169c-67 3-38 105-44 169h-31v-121c0-29-5-50-35-48C34-165 62-65 56 0H25l-1-190h30c1 10-1 24 2 32 10-44 99-50 107 0 11-21 27-35 58-36 85-2 47 119 55 194h-31v-121c0-29-5-49-35-48" id="ai"/><path fill="#fff" d="M24-231v-30h32v30H24zM24 0v-190h32V0H24" id="aj"/><path fill="#fff" d="M117-194c89-4 53 116 60 194h-32v-121c0-31-8-49-39-48C34-167 62-67 57 0H25l-1-190h30c1 10-1 24 2 32 11-22 29-35 61-36" id="ak"/><g id="p"><use transform="matrix(0.05,0,0,0.05,0,0)" xlink:href="#ah"/><use transform="matrix(0.05,0,0,0.05,10,0)" xlink:href="#Q"/><use transform="matrix(0.05,0,0,0.05,20,0)" xlink:href="#P"/><use transform="matrix(0.05,0,0,0.05,25.950000000000003,0)" xlink:href="#ai"/><use transform="matrix(0.05,0,0,0.05,40.9,0)" xlink:href="#aj"/><use transform="matrix(0.05,0,0,0.05,44.85,0)" xlink:href="#W"/><use transform="matrix(0.05,0,0,0.05,53.85,0)" xlink:href="#W"/><use transform="matrix(0.05,0,0,0.05,62.85,0)" xlink:href="#aj"/><use transform="matrix(0.05,0,0,0.05,66.8,0)" xlink:href="#U"/><use transform="matrix(0.05,0,0,0.05,76.8,0)" xlink:href="#ak"/><use transform="matrix(0.05,0,0,0.05,86.8,0)" xlink:href="#W"/></g><path d="M96-169c-40 0-48 33-48 73s9 75 48 75c24 0 41-14 43-38l32 2c-6 37-31 61-74 61-59 0-76-41-82-99-10-93 101-131 147-64 4 7 5 14 7 22l-32 3c-4-21-16-35-41-35" id="al"/><g id="q"><use transform="matrix(0.05,0,0,0.05,0,0)" xlink:href="#ac"/><use transform="matrix(0.05,0,0,0.05,10.5,0)" xlink:href="#ac"/><use transform="matrix(0.05,0,0,0.05,21,0)" xlink:href="#C"/><use transform="matrix(0.05,0,0,0.05,24.95,0)" xlink:href="#D"/><use transform="matrix(0.05,0,0,0.05,34.95,0)" xlink:href="#al"/><use transform="matrix(0.05,0,0,0.05,43.95,0)" xlink:href="#Z"/><use transform="matrix(0.05,0,0,0.05,47.900000000000006,0)" xlink:href="#M"/><use transform="matrix(0.05,0,0,0.05,57.900000000000006,0)" xlink:href="#A"/><use transform="matrix(0.05,0,0,0.05,67.9,0)" xlink:href="#N"/><use transform="matrix(0.05,0,0,0.05,77.9,0)" xlink:href="#E"/><use transform="matrix(0.05,0,0,0.05,86.9,0)" xlink:href="#ae"/><use transform="matrix(0.05,0,0,0.05,97.4,0)" xlink:href="#ae"/></g><path d="M212-179c-10-28-35-45-73-45-59 0-87 40-87 99 0 60 29 101 89 101 43 0 62-24 78-52l27 14C228-24 195 4 139 4 59 4 22-46 18-125c-6-104 99-153 187-111 19 9 31 26 39 46" id="am"/><path d="M143 0L79-87 56-68V0H24v-261h32v163l83-92h37l-77 82L181 0h-38" id="an"/><g id="r"><use transform="matrix(0.05,0,0,0.05,0,0)" xlink:href="#am"/><use transform="matrix(0.05,0,0,0.05,12.950000000000001,0)" xlink:href="#aa"/><use transform="matrix(0.05,0,0,0.05,22.950000000000003,0)" xlink:href="#N"/><use transform="matrix(0.05,0,0,0.05,32.95,0)" xlink:href="#al"/><use transform="matrix(0.05,0,0,0.05,41.95,0)" xlink:href="#an"/></g><g id="s"><use transform="matrix(0.05,0,0,0.05,0,0)" xlink:href="#z"/><use transform="matrix(0.05,0,0,0.05,12,0)" xlink:href="#M"/><use transform="matrix(0.05,0,0,0.05,22,0)" xlink:href="#F"/><use transform="matrix(0.05,0,0,0.05,27,0)" xlink:href="#aa"/><use transform="matrix(0.05,0,0,0.05,37,0)" xlink:href="#H"/><use transform="matrix(0.05,0,0,0.05,47,0)" xlink:href="#G"/><use transform="matrix(0.05,0,0,0.05,52.95,0)" xlink:href="#C"/><use transform="matrix(0.05,0,0,0.05,56.900000000000006,0)" xlink:href="#x"/><use transform="matrix(0.05,0,0,0.05,65.9,0)" xlink:href="#w"/><use transform="matrix(0.05,0,0,0.05,75.9,0)" xlink:href="#F"/><use transform="matrix(0.05,0,0,0.05,80.9,0)" xlink:href="#C"/><use transform="matrix(0.05,0,0,0.05,84.85000000000001,0)" xlink:href="#H"/><use transform="matrix(0.05,0,0,0.05,94.85000000000001,0)" xlink:href="#D"/></g><path d="M137 0h-34L2-248h35l83 218 83-218h36" id="ao"/><g id="t"><use transform="matrix(0.05,0,0,0.05,0,0)" xlink:href="#ao"/><use transform="matrix(0.05,0,0,0.05,10.65,0)" xlink:href="#w"/><use transform="matrix(0.05,0,0,0.05,20.65,0)" xlink:href="#Z"/><use transform="matrix(0.05,0,0,0.05,24.599999999999998,0)" xlink:href="#C"/><use transform="matrix(0.05,0,0,0.05,28.549999999999997,0)" xlink:href="#A"/><use transform="matrix(0.05,0,0,0.05,38.55,0)" xlink:href="#w"/><use transform="matrix(0.05,0,0,0.05,48.55,0)" xlink:href="#F"/><use transform="matrix(0.05,0,0,0.05,53.54999999999999,0)" xlink:href="#N"/></g><path d="M127-220V0H93v-220H8v-28h204v28h-85" id="ap"/><g id="u"><use transform="matrix(0.05,0,0,0.05,0,0)" xlink:href="#ac"/><use transform="matrix(0.05,0,0,0.05,10.5,0)" xlink:href="#ac"/><use transform="matrix(0.05,0,0,0.05,21,0)" xlink:href="#ap"/><use transform="matrix(0.05,0,0,0.05,31.950000000000003,0)" xlink:href="#aa"/><use transform="matrix(0.05,0,0,0.05,41.95,0)" xlink:href="#G"/><use transform="matrix(0.05,0,0,0.05,47.900000000000006,0)" xlink:href="#N"/><use transform="matrix(0.05,0,0,0.05,57.900000000000006,0)" xlink:href="#w"/><use transform="matrix(0.05,0,0,0.05,67.9,0)" xlink:href="#F"/><use transform="matrix(0.05,0,0,0.05,72.9,0)" xlink:href="#N"/><use transform="matrix(0.05,0,0,0.05,82.9,0)" xlink:href="#D"/><use transform="matrix(0.05,0,0,0.05,92.9,0)" xlink:href="#E"/><use transform="matrix(0.05,0,0,0.05,101.9,0)" xlink:href="#ae"/><use transform="matrix(0.05,0,0,0.05,112.4,0)" xlink:href="#ae"/></g></defs></g></svg>