<svg xmlns="http://www.w3.org/2000/svg" xmlns:xlink="http://www.w3.org/1999/xlink" xmlns:lucid="lucid" width="1360" height="1760"><g transform="translate(0 0)" lucid:page-tab-id="tJ0BokXE681c"><path d="M0 0h1360v1760H0z" fill="#fff"/><path d="M240 350h160v40H240z" fill="#fff"/><use xlink:href="#a" transform="matrix(1,0,0,1,240,350) translate(25.529999999999994 24.4)"/><path d="M300 650h160v40H300z" fill="#fff"/><use xlink:href="#a" transform="matrix(1,0,0,1,300,650) translate(25.529999999999994 24.4)"/><path d="M179.75 449.75c0 10.9-8.84 19.75-19.75 19.75-10.9 0-19.75-8.84-19.75-19.75 0-10.9 8.84-19.75 19.75-19.75 10.9 0 19.75 8.84 19.75 19.75z" stroke="#000" stroke-width="2" fill="#fff"/><path d="M120 430h80v158h-80z" fill="none"/><path d="M160 469.5v55.3l40 63.2m-40-63.2L120 588m0-98.75h80" stroke="#000" stroke-width="2" fill="none"/><use xlink:href="#b" transform="matrix(1,0,0,1,40,588) translate(19.64999999999999 14.6)"/><use xlink:href="#c" transform="matrix(1,0,0,1,40,588) translate(97.6 14.6)"/><use xlink:href="#d" transform="matrix(1,0,0,1,40,588) translate(182.45 14.6)"/><path d="M480 520c0 33.14-35.82 60-80 60s-80-26.86-80-60 35.82-60 80-60 80 26.86 80 60z" stroke="#000" stroke-width="2" fill="#fff"/><use xlink:href="#e" transform="matrix(1,0,0,1,320,460) translate(58.029999999999994 63.15)"/><path d="M320 520H200" stroke="#000" stroke-width="2" fill="none"/><path d="M320 520v.38l.03.62H320v-2h.03z"/><path/><path d="M820 500c0 33.14-35.82 60-80 60s-80-26.86-80-60 35.82-60 80-60 80 26.86 80 60z" stroke="#000" stroke-width="2"/><use xlink:href="#f" transform="matrix(1,0,0,1,660,440) translate(50.505 33.15)"/><use xlink:href="#g" transform="matrix(1,0,0,1,660,440) translate(15.255000000000004 54.75)"/><use xlink:href="#h" transform="matrix(1,0,0,1,660,440) translate(65.85499999999999 54.75)"/><use xlink:href="#i" transform="matrix(1,0,0,1,660,440) translate(42.05499999999999 76.35000000000001)"/><use xlink:href="#j" transform="matrix(1,0,0,1,660,440) translate(55.005 97.95000000000002)"/><path d="M820 280c0 33.14-35.82 60-80 60s-80-26.86-80-60 35.82-60 80-60 80 26.86 80 60z" stroke="#000" stroke-width="2"/><use xlink:href="#f" transform="matrix(1,0,0,1,660,220) translate(50.505 25.41)"/><use xlink:href="#k" transform="matrix(1,0,0,1,660,220) translate(37.22999999999999 47.01)"/><use xlink:href="#l" transform="matrix(1,0,0,1,660,220) translate(23.054999999999993 68.61)"/><use xlink:href="#j" transform="matrix(1,0,0,1,660,220) translate(55.004999999999995 90.21000000000001)"/><path d="M820 700c0 33.14-35.82 60-80 60s-80-26.86-80-60 35.82-60 80-60 80 26.86 80 60z" stroke="#000" stroke-width="2"/><use xlink:href="#m" transform="matrix(1,0,0,1,660,640) translate(26.529999999999994 51.9)"/><use xlink:href="#n" transform="matrix(1,0,0,1,660,640) translate(90.53 51.9)"/><use xlink:href="#o" transform="matrix(1,0,0,1,660,640) translate(29.555 73.5)"/><use xlink:href="#j" transform="matrix(1,0,0,1,660,640) translate(80.45500000000001 73.5)"/><path d="M669.37 670.02l-1.1 1.67-8.1-5.3 1.1-1.7zm-16.18-10.6l-1.1 1.66-16.18-10.6 1.1-1.67zm-24.27-15.92l-1.1 1.68-16.17-10.6 1.1-1.68zm-25.36-14.23l-2.1-1.38h3zm-31.4-22.98h-3.65l-5.4-3.55 1.1-1.67zm-16.03-10.52l-1.1 1.67-16.17-10.6 1.1-1.68zm-24.26-15.9l-1.1 1.66-16.17-10.6 1.1-1.67zm-24.27-15.92l-1.08 1.67-16.18-10.6 1.1-1.67zm-24.25-15.9l-1.1 1.67-8.08-5.3 1.1-1.68z"/><path d="M670.27 670.6l-.68.9-.5.73-.83-.54 1.1-1.68zM494.74 543.5l-.1 2-18.28-.83 8.07 16.43-1.8.88-9.05-18.43.48-.82.1-.17z"/><use xlink:href="#p" transform="matrix(1,0,0,1,525.3668895008904,606.2873007389371) translate(0 14.4)"/><path d="M478.9 483.7l-7 7.8-1.5-1.34 7-7.8zm20.98-23.44l-14 15.62-1.48-1.33 14-15.62zm20.98-23.42l-14 15.62-1.48-1.34 14-15.62zm20.98-23.43l-14 15.63-1.48-1.33 14-15.62zm7-7.8l-1.5-1.33 7.22-8.05h2.7zm34.97-39.04l-7.2 8.06h-2.7l8.42-9.4zm21-23.42l-14 15.6-1.5-1.32 14-15.62zm20.97-23.43l-14 15.63-1.47-1.34 13.98-15.62zm21-23.42l-14 15.62-1.5-1.33 14-15.62zm13.97-15.6l-7 7.8-1.48-1.34 7-7.8zM660 280l-.74-.67.8-.88z"/><path d="M476.04 471.4l-3.57 17.97 17.45-5.52.6 1.9-19.77 6.26-.62-.9 3.95-20.08z"/><use xlink:href="#p" transform="matrix(1,0,0,1,504.12715579784987,374.6157189232313) translate(0 14.4)"/><path d="M490.1 519.88l-10 1.1-.2-1.97 10-1.1zm18.45-2.05l-8.44.94-.2-2 8.65-.95zm131.56-14.6l-8.65.95v-2l8.44-.95zm20-2.24l-10 1.1-.2-1.98 10-1.1z"/><path d="M660 500l-.1-1h.13zM496.6 508.78l-14.65 11 16.7 7.53-.83 1.83-17.85-8.05.03-1.08v-.38l-.03-.84 15.4-11.6z"/><use xlink:href="#p" transform="matrix(1,0,0,1,508.55,499.2) translate(0 14.4)"/><path d="M1239.75 359.75c0 10.9-8.84 19.75-19.75 19.75-10.9 0-19.75-8.84-19.75-19.75 0-10.9 8.84-19.75 19.75-19.75 10.9 0 19.75 8.84 19.75 19.75z" stroke="#000" stroke-width="2"/><path d="M1180 340h80v158h-80z" fill="none"/><path d="M1220 379.5v55.3l40 63.2m-40-63.2l-40 63.2m0-98.75h80" stroke="#000" stroke-width="2" fill="none"/><use xlink:href="#q" transform="matrix(1,0,0,1,1100,498) translate(23.599999999999994 14.6)"/><use xlink:href="#r" transform="matrix(1,0,0,1,1100,498) translate(76.55 14.6)"/><use xlink:href="#s" transform="matrix(1,0,0,1,1100,498) translate(150.45 14.6)"/><path d="M1180 430l-360 70" stroke="#000" stroke-width="2" fill="none"/><path d="M1180 430l-.2-.98.2-.04zM820.2 500.98l-.23.04.03-1.02z"/><path d="M1180 430L820 280" stroke="#000" stroke-width="2" fill="none"/><path d="M1180 431.08l-.38-.16.38-.92zM820.38 279.08l-.38.92v-.38l-.03-.72z"/><path d="M1180.5 430.87l-388.02 223.2-1-1.73 388.02-223.2zM1180 430l-.5-.87.5-.28zM792.48 654.07l-.54.3-.5-.32-1.45-.85 1.48-.86z"/><path d="M460 220c0 33.14-35.82 60-80 60s-80-26.86-80-60 35.82-60 80-60 80 26.86 80 60z" stroke="#000" stroke-width="2" fill="#fff"/><use xlink:href="#t" transform="matrix(1,0,0,1,300,160) translate(54.529999999999994 23.41)"/><use xlink:href="#u" transform="matrix(1,0,0,1,300,160) translate(23.055000000000003 45.01)"/><use xlink:href="#v" transform="matrix(1,0,0,1,300,160) translate(10.079999999999993 66.61)"/><use xlink:href="#w" transform="matrix(1,0,0,1,300,160) translate(45.07999999999999 66.61)"/><path d="M540 820c0 33.14-35.82 60-80 60s-80-26.86-80-60 35.82-60 80-60 80 26.86 80 60z" stroke="#000" stroke-width="2" fill="#fff"/><use xlink:href="#x" transform="matrix(1,0,0,1,380,760) translate(39.63 51.9)"/><use xlink:href="#y" transform="matrix(1,0,0,1,380,760) translate(82.48 51.9)"/><use xlink:href="#z" transform="matrix(1,0,0,1,380,760) translate(45.529999999999994 73.5)"/><path d="M664.7 256.86l-.35 1.97-9.74-1.8.37-1.97zm-19.47-3.6l-.36 1.96-19.48-3.6.35-1.97zm-29.58-3.44l-.5-.1h.52zm-116.5-23.6l-.37 1.97-19.48-3.6.36-1.98zm10.24 1.9h-.54l.02-.1zm-39.48-7.3l-.36 1.97-9.74-1.82.36-1.96z"/><path d="M460.18 219.02l-.18.98v-.38l-.03-.64zM665.77 257.6l-.53 1.05-19.15 7-.7-1.87 17.2-6.3-13.8-12.03 1.3-1.5z"/><use xlink:href="#A" transform="matrix(1,0,0,1,505.7894275379091,228.1215321382079) translate(0 14.4)"/><path d="M550.04 815.8l-9.57 5.08-.94-1.76 9.57-5.08zm28.72-15.24l-19.14 10.16-.94-1.77 19.14-10.16zm9.58-5.08l-.94-1.77 1.92-1h4.27zm47.86-25.4l-1.92 1H630l5.26-2.78zm28.72-15.25L645.77 765l-.93-1.78 19.14-10.16zm19.15-10.17l-9.58 5.08-.94-1.76 9.57-5.08z"/><path d="M540.47 820.88l-.5.27.03-1.15zM683.96 742.8l.58.45.4.26-10.92 17.86-1.7-1.04 9.54-15.62-18.3-.84.1-2z"/><use xlink:href="#A" transform="matrix(1,0,0,1,555.324549208328,771.0897183950561) translate(0 14.4)"/><path d="M460 760l-38.74-181.14" fill="none"/><path d="M460 760l-2.15-10.06m-2.15-10.07l-4.3-20.12m-2.16-10.07l-4.3-20.12m-2.16-10.06l-4.3-20.13m-2.16-10.06l-4.3-20.12m-2.15-10.06l-4.3-20.13m-2.16-10.07l-2.14-10.07" stroke="#000" stroke-width="2" fill="none"/><path d="M467.62 740.4l-6.58 19.63L460 760h-.9l-.44.02-13.63-14.78 1.47-1.36 13.1 14.2 6.12-18.3zM422.23 578.65l-1.95.42-.2-1 .43-.06 1.52-.34z"/><path d="M400 460l-20-180" fill="none"/><path d="M400 460l-1.1-10m-1.12-10l-2.22-20m-1.12-10l-2.22-20m-1.1-10l-2.23-20m-1.12-10l-2.22-20m-1.12-10l-2.22-20m-1.1-10L380 280" stroke="#000" stroke-width="2" fill="none"/><path d="M401 460.03l-1-.03 1-.1zM380 280h.9l.34-.02 11.58 15.4-1.6 1.2-11-14.63-7.53 16.7-1.83-.83 8.05-17.85z"/><path d="M1120 700c0 33.14-35.82 60-80 60s-80-26.86-80-60 35.82-60 80-60 80 26.86 80 60z" stroke="#000" stroke-width="2" fill="#fff"/><g><use xlink:href="#B" transform="matrix(1,0,0,1,960,640) translate(26.604999999999997 63.15)"/><use xlink:href="#C" transform="matrix(1,0,0,1,960,640) translate(76.505 63.15)"/></g><path d="M1219.75 779.75c0 10.9-8.84 19.75-19.75 19.75-10.9 0-19.75-8.84-19.75-19.75 0-10.9 8.84-19.75 19.75-19.75 10.9 0 19.75 8.84 19.75 19.75z" stroke="#000" stroke-width="2" fill="#fff"/><path d="M1160 760h80v158h-80z" fill="none"/><path d="M1200 799.5v55.3l40 63.2m-40-63.2l-40 63.2m0-98.75h80" stroke="#000" stroke-width="2" fill="none"/><g><use xlink:href="#D" transform="matrix(1,0,0,1,1080,918) translate(61.074999999999996 14.6)"/><use xlink:href="#E" transform="matrix(1,0,0,1,1080,918) translate(140.975 14.6)"/></g><path d="M1160 850l-57.27-111.43" stroke="#000" stroke-width="2" fill="none"/><path d="M1160 852.2l-.9-1.74.9-.46zM1103.62 738.12l-1.78.9-.35-.68 1.25-1.12.27-.27zM975.58 662.83l-1.18 1.62-8.18-5.98 1.18-1.62zm-16.35-11.96l-1.18 1.62-16.35-11.97 1.18-1.62zm-51.07-37.35h-3.4l-12.1-8.87 1.17-1.62zm-22.5-16.47l-1.2 1.62-16.34-11.96 1.18-1.6zm-24.53-17.94l-1.18 1.63-16.35-11.96 1.18-1.62zm-24.53-17.93l-1.18 1.62-16.35-11.97 1.18-1.62zm-24.52-17.94l-1.18 1.62-8.18-5.98 1.18-1.62z"/><path d="M976.5 663.52l-1.4 1.44-.7-.5 1.18-1.63zM823.3 539l-.18 2-18.22-1.78 7.2 16.83-1.82.78-8.17-19.04.65-.58.2-.2z"/><g><use xlink:href="#F" transform="matrix(1,0,0,1,864.30552419384,613.5178123265526) translate(0 14.4)"/></g><defs><path d="M18-100v-36l175-74v27L42-118l151 64v27" id="G"/><path d="M33 0v-248h34V0H33" id="H"/><path d="M117-194c89-4 53 116 60 194h-32v-121c0-31-8-49-39-48C34-167 62-67 57 0H25l-1-190h30c1 10-1 24 2 32 11-22 29-35 61-36" id="I"/><path d="M96-169c-40 0-48 33-48 73s9 75 48 75c24 0 41-14 43-38l32 2c-6 37-31 61-74 61-59 0-76-41-82-99-10-93 101-131 147-64 4 7 5 14 7 22l-32 3c-4-21-16-35-41-35" id="J"/><path d="M24 0v-261h32V0H24" id="K"/><path d="M84 4C-5 8 30-112 23-190h32v120c0 31 7 50 39 49 72-2 45-101 50-169h31l1 190h-30c-1-10 1-25-2-33-11 22-28 36-60 37" id="L"/><path d="M85-194c31 0 48 13 60 33l-1-100h32l1 261h-30c-2-10 0-23-3-31C134-8 116 4 85 4 32 4 16-35 15-94c0-66 23-100 70-100zm9 24c-40 0-46 34-46 75 0 40 6 74 45 74 42 0 51-32 51-76 0-42-9-74-50-73" id="M"/><path d="M100-194c63 0 86 42 84 106H49c0 40 14 67 53 68 26 1 43-12 49-29l28 8c-11 28-37 45-77 45C44 4 14-33 15-96c1-61 26-98 85-98zm52 81c6-60-76-77-97-28-3 7-6 17-6 28h103" id="N"/><path d="M135-143c-3-34-86-38-87 0 15 53 115 12 119 90S17 21 10-45l28-5c4 36 97 45 98 0-10-56-113-15-118-90-4-57 82-63 122-42 12 7 21 19 24 35" id="O"/><path d="M18-27v-27l151-64-151-65v-27l175 74v36" id="P"/><g id="a"><use transform="matrix(0.05,0,0,0.05,0,0)" xlink:href="#G"/><use transform="matrix(0.05,0,0,0.05,10.5,0)" xlink:href="#G"/><use transform="matrix(0.05,0,0,0.05,21,0)" xlink:href="#H"/><use transform="matrix(0.05,0,0,0.05,26,0)" xlink:href="#I"/><use transform="matrix(0.05,0,0,0.05,36,0)" xlink:href="#J"/><use transform="matrix(0.05,0,0,0.05,45,0)" xlink:href="#K"/><use transform="matrix(0.05,0,0,0.05,48.95,0)" xlink:href="#L"/><use transform="matrix(0.05,0,0,0.05,58.95,0)" xlink:href="#M"/><use transform="matrix(0.05,0,0,0.05,68.95,0)" xlink:href="#N"/><use transform="matrix(0.05,0,0,0.05,78.95,0)" xlink:href="#O"/><use transform="matrix(0.05,0,0,0.05,87.95,0)" xlink:href="#P"/><use transform="matrix(0.05,0,0,0.05,98.45,0)" xlink:href="#P"/></g><path d="M185-189c-5-48-123-54-124 2 14 75 158 14 163 119 3 78-121 87-175 55-17-10-28-26-33-46l33-7c5 56 141 63 141-1 0-78-155-14-162-118-5-82 145-84 179-34 5 7 8 16 11 25" id="Q"/><path d="M59-47c-2 24 18 29 38 22v24C64 9 27 4 27-40v-127H5v-23h24l9-43h21v43h35v23H59v120" id="R"/><path d="M141-36C126-15 110 5 73 4 37 3 15-17 15-53c-1-64 63-63 125-63 3-35-9-54-41-54-24 1-41 7-42 31l-33-3c5-37 33-52 76-52 45 0 72 20 72 64v82c-1 20 7 32 28 27v20c-31 9-61-2-59-35zM48-53c0 20 12 33 32 33 41-3 63-29 60-74-43 2-92-5-92 41" id="S"/><path d="M114-163C36-179 61-72 57 0H25l-1-190h30c1 12-1 29 2 39 6-27 23-49 58-41v29" id="T"/><g id="b"><use transform="matrix(0.05,0,0,0.05,0,0)" xlink:href="#Q"/><use transform="matrix(0.05,0,0,0.05,12,0)" xlink:href="#R"/><use transform="matrix(0.05,0,0,0.05,17,0)" xlink:href="#S"/><use transform="matrix(0.05,0,0,0.05,27,0)" xlink:href="#I"/><use transform="matrix(0.05,0,0,0.05,37,0)" xlink:href="#M"/><use transform="matrix(0.05,0,0,0.05,47,0)" xlink:href="#S"/><use transform="matrix(0.05,0,0,0.05,57,0)" xlink:href="#T"/><use transform="matrix(0.05,0,0,0.05,62.95,0)" xlink:href="#M"/></g><path d="M212-179c-10-28-35-45-73-45-59 0-87 40-87 99 0 60 29 101 89 101 43 0 62-24 78-52l27 14C228-24 195 4 139 4 59 4 22-46 18-125c-6-104 99-153 187-111 19 9 31 26 39 46" id="U"/><path d="M100-194c62-1 85 37 85 99 1 63-27 99-86 99S16-35 15-95c0-66 28-99 85-99zM99-20c44 1 53-31 53-75 0-43-8-75-51-75s-53 32-53 75 10 74 51 75" id="V"/><path d="M115-194c55 1 70 41 70 98S169 2 115 4C84 4 66-9 55-30l1 105H24l-1-265h31l2 30c10-21 28-34 59-34zm-8 174c40 0 45-34 45-75s-6-73-45-74c-42 0-51 32-51 76 0 43 10 73 51 73" id="W"/><g id="c"><use transform="matrix(0.05,0,0,0.05,0,0)" xlink:href="#U"/><use transform="matrix(0.05,0,0,0.05,12.950000000000001,0)" xlink:href="#V"/><use transform="matrix(0.05,0,0,0.05,22.950000000000003,0)" xlink:href="#T"/><use transform="matrix(0.05,0,0,0.05,28.900000000000002,0)" xlink:href="#W"/><use transform="matrix(0.05,0,0,0.05,38.900000000000006,0)" xlink:href="#V"/><use transform="matrix(0.05,0,0,0.05,48.900000000000006,0)" xlink:href="#T"/><use transform="matrix(0.05,0,0,0.05,54.85,0)" xlink:href="#S"/><use transform="matrix(0.05,0,0,0.05,64.85000000000001,0)" xlink:href="#R"/><use transform="matrix(0.05,0,0,0.05,69.85000000000001,0)" xlink:href="#N"/></g><path d="M232-93c-1 65-40 97-104 97C67 4 28-28 28-90v-158h33c8 89-33 224 67 224 102 0 64-133 71-224h33v155" id="X"/><g id="d"><use transform="matrix(0.05,0,0,0.05,0,0)" xlink:href="#X"/><use transform="matrix(0.05,0,0,0.05,12.950000000000001,0)" xlink:href="#O"/><use transform="matrix(0.05,0,0,0.05,21.950000000000003,0)" xlink:href="#N"/><use transform="matrix(0.05,0,0,0.05,31.950000000000003,0)" xlink:href="#T"/></g><path d="M30 0v-248h33v221h125V0H30" id="Y"/><path d="M177-190C167-65 218 103 67 71c-23-6-38-20-44-43l32-5c15 47 100 32 89-28v-30C133-14 115 1 83 1 29 1 15-40 15-95c0-56 16-97 71-98 29-1 48 16 59 35 1-10 0-23 2-32h30zM94-22c36 0 50-32 50-73 0-42-14-75-50-75-39 0-46 34-46 75s6 73 46 73" id="Z"/><path d="M24-231v-30h32v30H24zM24 0v-190h32V0H24" id="aa"/><g id="e"><use transform="matrix(0.05,0,0,0.05,0,0)" xlink:href="#Y"/><use transform="matrix(0.05,0,0,0.05,10,0)" xlink:href="#V"/><use transform="matrix(0.05,0,0,0.05,20,0)" xlink:href="#Z"/><use transform="matrix(0.05,0,0,0.05,30,0)" xlink:href="#aa"/><use transform="matrix(0.05,0,0,0.05,33.95,0)" xlink:href="#I"/></g><path fill="#fff" d="M30 0v-248h33v221h125V0H30" id="ab"/><path fill="#fff" d="M141-36C126-15 110 5 73 4 37 3 15-17 15-53c-1-64 63-63 125-63 3-35-9-54-41-54-24 1-41 7-42 31l-33-3c5-37 33-52 76-52 45 0 72 20 72 64v82c-1 20 7 32 28 27v20c-31 9-61-2-59-35zM48-53c0 20 12 33 32 33 41-3 63-29 60-74-43 2-92-5-92 41" id="ac"/><path fill="#fff" d="M84 4C-5 8 30-112 23-190h32v120c0 31 7 50 39 49 72-2 45-101 50-169h31l1 190h-30c-1-10 1-25-2-33-11 22-28 36-60 37" id="ad"/><path fill="#fff" d="M117-194c89-4 53 116 60 194h-32v-121c0-31-8-49-39-48C34-167 62-67 57 0H25l-1-190h30c1 10-1 24 2 32 11-22 29-35 61-36" id="ae"/><path fill="#fff" d="M96-169c-40 0-48 33-48 73s9 75 48 75c24 0 41-14 43-38l32 2c-6 37-31 61-74 61-59 0-76-41-82-99-10-93 101-131 147-64 4 7 5 14 7 22l-32 3c-4-21-16-35-41-35" id="af"/><path fill="#fff" d="M106-169C34-169 62-67 57 0H25v-261h32l-1 103c12-21 28-36 61-36 89 0 53 116 60 194h-32v-121c2-32-8-49-39-48" id="ag"/><g id="f"><use transform="matrix(0.05,0,0,0.05,0,0)" xlink:href="#ab"/><use transform="matrix(0.05,0,0,0.05,10,0)" xlink:href="#ac"/><use transform="matrix(0.05,0,0,0.05,20,0)" xlink:href="#ad"/><use transform="matrix(0.05,0,0,0.05,30,0)" xlink:href="#ae"/><use transform="matrix(0.05,0,0,0.05,40,0)" xlink:href="#af"/><use transform="matrix(0.05,0,0,0.05,49,0)" xlink:href="#ag"/></g><path fill="#fff" d="M266 0h-40l-56-210L115 0H75L2-248h35L96-30l15-64 43-154h32l59 218 59-218h35" id="ah"/><path fill="#fff" d="M100-194c63 0 86 42 84 106H49c0 40 14 67 53 68 26 1 43-12 49-29l28 8c-11 28-37 45-77 45C44 4 14-33 15-96c1-61 26-98 85-98zm52 81c6-60-76-77-97-28-3 7-6 17-6 28h103" id="ai"/><path fill="#fff" d="M143 0L79-87 56-68V0H24v-261h32v163l83-92h37l-77 82L181 0h-38" id="aj"/><g id="g"><use transform="matrix(0.05,0,0,0.05,0,0)" xlink:href="#ah"/><use transform="matrix(0.05,0,0,0.05,16.599999999999998,0)" xlink:href="#ai"/><use transform="matrix(0.05,0,0,0.05,26.599999999999994,0)" xlink:href="#ac"/><use transform="matrix(0.05,0,0,0.05,36.599999999999994,0)" xlink:href="#aj"/></g><path fill="#fff" d="M30-248c87 1 191-15 191 75 0 78-77 80-158 76V0H30v-248zm33 125c57 0 124 11 124-50 0-59-68-47-124-48v98" id="ak"/><path fill="#fff" d="M135-143c-3-34-86-38-87 0 15 53 115 12 119 90S17 21 10-45l28-5c4 36 97 45 98 0-10-56-113-15-118-90-4-57 82-63 122-42 12 7 21 19 24 35" id="al"/><path fill="#fff" d="M206 0h-36l-40-164L89 0H53L-1-190h32L70-26l43-164h34l41 164 42-164h31" id="am"/><path fill="#fff" d="M100-194c62-1 85 37 85 99 1 63-27 99-86 99S16-35 15-95c0-66 28-99 85-99zM99-20c44 1 53-31 53-75 0-43-8-75-51-75s-53 32-53 75 10 74 51 75" id="an"/><path fill="#fff" d="M114-163C36-179 61-72 57 0H25l-1-190h30c1 12-1 29 2 39 6-27 23-49 58-41v29" id="ao"/><path fill="#fff" d="M85-194c31 0 48 13 60 33l-1-100h32l1 261h-30c-2-10 0-23-3-31C134-8 116 4 85 4 32 4 16-35 15-94c0-66 23-100 70-100zm9 24c-40 0-46 34-46 75 0 40 6 74 45 74 42 0 51-32 51-76 0-42-9-74-50-73" id="ap"/><g id="h"><use transform="matrix(0.05,0,0,0.05,0,0)" xlink:href="#ak"/><use transform="matrix(0.05,0,0,0.05,12,0)" xlink:href="#ac"/><use transform="matrix(0.05,0,0,0.05,22,0)" xlink:href="#al"/><use transform="matrix(0.05,0,0,0.05,31,0)" xlink:href="#al"/><use transform="matrix(0.05,0,0,0.05,40,0)" xlink:href="#am"/><use transform="matrix(0.05,0,0,0.05,52.95,0)" xlink:href="#an"/><use transform="matrix(0.05,0,0,0.05,62.95,0)" xlink:href="#ao"/><use transform="matrix(0.05,0,0,0.05,68.9,0)" xlink:href="#ap"/></g><path fill="#fff" d="M233-177c-1 41-23 64-60 70L243 0h-38l-65-103H63V0H30v-248c88 3 205-21 203 71zM63-129c60-2 137 13 137-47 0-61-80-42-137-45v92" id="aq"/><path fill="#fff" d="M108 0H70L1-190h34L89-25l56-165h34" id="ar"/><path fill="#fff" d="M179-190L93 31C79 59 56 82 12 73V49c39 6 53-20 64-50L1-190h34L92-34l54-156h33" id="as"/><g id="i"><use transform="matrix(0.05,0,0,0.05,0,0)" xlink:href="#aq"/><use transform="matrix(0.05,0,0,0.05,12.950000000000001,0)" xlink:href="#ai"/><use transform="matrix(0.05,0,0,0.05,22.950000000000003,0)" xlink:href="#af"/><use transform="matrix(0.05,0,0,0.05,31.950000000000003,0)" xlink:href="#an"/><use transform="matrix(0.05,0,0,0.05,41.95,0)" xlink:href="#ar"/><use transform="matrix(0.05,0,0,0.05,50.95,0)" xlink:href="#ai"/><use transform="matrix(0.05,0,0,0.05,60.95,0)" xlink:href="#ao"/><use transform="matrix(0.05,0,0,0.05,66.9,0)" xlink:href="#as"/></g><path fill="#fff" d="M205 0l-28-72H64L36 0H1l101-248h38L239 0h-34zm-38-99l-47-123c-12 45-31 82-46 123h93" id="at"/><path fill="#fff" d="M59-47c-2 24 18 29 38 22v24C64 9 27 4 27-40v-127H5v-23h24l9-43h21v43h35v23H59v120" id="au"/><g id="j"><use transform="matrix(0.05,0,0,0.05,0,0)" xlink:href="#at"/><use transform="matrix(0.05,0,0,0.05,12,0)" xlink:href="#au"/><use transform="matrix(0.05,0,0,0.05,17,0)" xlink:href="#au"/><use transform="matrix(0.05,0,0,0.05,22,0)" xlink:href="#ac"/><use transform="matrix(0.05,0,0,0.05,32,0)" xlink:href="#af"/><use transform="matrix(0.05,0,0,0.05,41,0)" xlink:href="#aj"/></g><path fill="#fff" d="M33 0v-248h34V0H33" id="av"/><path fill="#fff" d="M101-234c-31-9-42 10-38 44h38v23H63V0H32v-167H5v-23h27c-7-52 17-82 69-68v24" id="aw"/><path fill="#fff" d="M24-231v-30h32v30H24zM24 0v-190h32V0H24" id="ax"/><g id="k"><use transform="matrix(0.05,0,0,0.05,0,0)" xlink:href="#av"/><use transform="matrix(0.05,0,0,0.05,5,0)" xlink:href="#ae"/><use transform="matrix(0.05,0,0,0.05,15,0)" xlink:href="#al"/><use transform="matrix(0.05,0,0,0.05,24,0)" xlink:href="#ad"/><use transform="matrix(0.05,0,0,0.05,34,0)" xlink:href="#aw"/><use transform="matrix(0.05,0,0,0.05,38.65,0)" xlink:href="#aw"/><use transform="matrix(0.05,0,0,0.05,43.65,0)" xlink:href="#ax"/><use transform="matrix(0.05,0,0,0.05,47.6,0)" xlink:href="#af"/><use transform="matrix(0.05,0,0,0.05,56.6,0)" xlink:href="#ax"/><use transform="matrix(0.05,0,0,0.05,60.550000000000004,0)" xlink:href="#ai"/><use transform="matrix(0.05,0,0,0.05,70.55000000000001,0)" xlink:href="#ae"/><use transform="matrix(0.05,0,0,0.05,80.55000000000001,0)" xlink:href="#au"/></g><g id="l"><use transform="matrix(0.05,0,0,0.05,0,0)" xlink:href="#at"/><use transform="matrix(0.05,0,0,0.05,12,0)" xlink:href="#ad"/><use transform="matrix(0.05,0,0,0.05,22,0)" xlink:href="#au"/><use transform="matrix(0.05,0,0,0.05,27,0)" xlink:href="#ag"/><use transform="matrix(0.05,0,0,0.05,37,0)" xlink:href="#ai"/><use transform="matrix(0.05,0,0,0.05,47,0)" xlink:href="#ae"/><use transform="matrix(0.05,0,0,0.05,57,0)" xlink:href="#au"/><use transform="matrix(0.05,0,0,0.05,62,0)" xlink:href="#ax"/><use transform="matrix(0.05,0,0,0.05,65.95,0)" xlink:href="#af"/><use transform="matrix(0.05,0,0,0.05,74.95,0)" xlink:href="#ac"/><use transform="matrix(0.05,0,0,0.05,84.95,0)" xlink:href="#au"/><use transform="matrix(0.05,0,0,0.05,89.95,0)" xlink:href="#ax"/><use transform="matrix(0.05,0,0,0.05,93.9,0)" xlink:href="#an"/><use transform="matrix(0.05,0,0,0.05,103.9,0)" xlink:href="#ae"/></g><g id="m"><use transform="matrix(0.05,0,0,0.05,0,0)" xlink:href="#ab"/><use transform="matrix(0.05,0,0,0.05,10,0)" xlink:href="#ac"/><use transform="matrix(0.05,0,0,0.05,20,0)" xlink:href="#ad"/><use transform="matrix(0.05,0,0,0.05,30,0)" xlink:href="#ae"/><use transform="matrix(0.05,0,0,0.05,40,0)" xlink:href="#af"/><use transform="matrix(0.05,0,0,0.05,49,0)" xlink:href="#ag"/></g><path fill="#fff" d="M160-131c35 5 61 23 61 61C221 17 115-2 30 0v-248c76 3 177-17 177 60 0 33-19 50-47 57zm-97-11c50-1 110 9 110-42 0-47-63-36-110-37v79zm0 115c55-2 124 14 124-45 0-56-70-42-124-44v89" id="ay"/><g id="n"><use transform="matrix(0.05,0,0,0.05,0,0)" xlink:href="#ay"/><use transform="matrix(0.05,0,0,0.05,12,0)" xlink:href="#ao"/><use transform="matrix(0.05,0,0,0.05,17.95,0)" xlink:href="#ad"/><use transform="matrix(0.05,0,0,0.05,27.950000000000003,0)" xlink:href="#au"/><use transform="matrix(0.05,0,0,0.05,32.95,0)" xlink:href="#ai"/></g><path fill="#fff" d="M63-220v92h138v28H63V0H30v-248h175v28H63" id="az"/><g id="o"><use transform="matrix(0.05,0,0,0.05,0,0)" xlink:href="#az"/><use transform="matrix(0.05,0,0,0.05,10.950000000000001,0)" xlink:href="#an"/><use transform="matrix(0.05,0,0,0.05,20.950000000000003,0)" xlink:href="#ao"/><use transform="matrix(0.05,0,0,0.05,26.900000000000002,0)" xlink:href="#af"/><use transform="matrix(0.05,0,0,0.05,35.900000000000006,0)" xlink:href="#ai"/></g><path d="M127-220V0H93v-220H8v-28h204v28h-85" id="aA"/><path d="M106-169C34-169 62-67 57 0H25v-261h32l-1 103c12-21 28-36 61-36 89 0 53 116 60 194h-32v-121c2-32-8-49-39-48" id="aB"/><g id="p"><use transform="matrix(0.05,0,0,0.05,0,0)" xlink:href="#G"/><use transform="matrix(0.05,0,0,0.05,10.5,0)" xlink:href="#G"/><use transform="matrix(0.05,0,0,0.05,21,0)" xlink:href="#aA"/><use transform="matrix(0.05,0,0,0.05,31.950000000000003,0)" xlink:href="#aB"/><use transform="matrix(0.05,0,0,0.05,41.95,0)" xlink:href="#T"/><use transform="matrix(0.05,0,0,0.05,47.900000000000006,0)" xlink:href="#N"/><use transform="matrix(0.05,0,0,0.05,57.900000000000006,0)" xlink:href="#S"/><use transform="matrix(0.05,0,0,0.05,67.9,0)" xlink:href="#R"/><use transform="matrix(0.05,0,0,0.05,72.9,0)" xlink:href="#N"/><use transform="matrix(0.05,0,0,0.05,82.9,0)" xlink:href="#I"/><use transform="matrix(0.05,0,0,0.05,92.9,0)" xlink:href="#O"/><use transform="matrix(0.05,0,0,0.05,101.9,0)" xlink:href="#P"/><use transform="matrix(0.05,0,0,0.05,112.4,0)" xlink:href="#P"/></g><g id="q"><use transform="matrix(0.05,0,0,0.05,0,0)" xlink:href="#Q"/><use transform="matrix(0.05,0,0,0.05,12,0)" xlink:href="#W"/><use transform="matrix(0.05,0,0,0.05,22,0)" xlink:href="#N"/><use transform="matrix(0.05,0,0,0.05,32,0)" xlink:href="#S"/><use transform="matrix(0.05,0,0,0.05,42,0)" xlink:href="#T"/></g><path d="M30-248c87 1 191-15 191 75 0 78-77 80-158 76V0H30v-248zm33 125c57 0 124 11 124-50 0-59-68-47-124-48v98" id="aC"/><g id="r"><use transform="matrix(0.05,0,0,0.05,0,0)" xlink:href="#aC"/><use transform="matrix(0.05,0,0,0.05,12,0)" xlink:href="#aB"/><use transform="matrix(0.05,0,0,0.05,22,0)" xlink:href="#aa"/><use transform="matrix(0.05,0,0,0.05,25.950000000000003,0)" xlink:href="#O"/><use transform="matrix(0.05,0,0,0.05,34.95,0)" xlink:href="#aB"/><use transform="matrix(0.05,0,0,0.05,44.95,0)" xlink:href="#aa"/><use transform="matrix(0.05,0,0,0.05,48.900000000000006,0)" xlink:href="#I"/><use transform="matrix(0.05,0,0,0.05,58.900000000000006,0)" xlink:href="#Z"/></g><path d="M205 0l-28-72H64L36 0H1l101-248h38L239 0h-34zm-38-99l-47-123c-12 45-31 82-46 123h93" id="aD"/><path d="M143 0L79-87 56-68V0H24v-261h32v163l83-92h37l-77 82L181 0h-38" id="aE"/><g id="s"><use transform="matrix(0.05,0,0,0.05,0,0)" xlink:href="#aD"/><use transform="matrix(0.05,0,0,0.05,12,0)" xlink:href="#R"/><use transform="matrix(0.05,0,0,0.05,17,0)" xlink:href="#R"/><use transform="matrix(0.05,0,0,0.05,22,0)" xlink:href="#S"/><use transform="matrix(0.05,0,0,0.05,32,0)" xlink:href="#J"/><use transform="matrix(0.05,0,0,0.05,41,0)" xlink:href="#aE"/><use transform="matrix(0.05,0,0,0.05,50,0)" xlink:href="#N"/><use transform="matrix(0.05,0,0,0.05,60,0)" xlink:href="#T"/></g><g id="t"><use transform="matrix(0.05,0,0,0.05,0,0)" xlink:href="#U"/><use transform="matrix(0.05,0,0,0.05,12.950000000000001,0)" xlink:href="#aB"/><use transform="matrix(0.05,0,0,0.05,22.950000000000003,0)" xlink:href="#N"/><use transform="matrix(0.05,0,0,0.05,32.95,0)" xlink:href="#J"/><use transform="matrix(0.05,0,0,0.05,41.95,0)" xlink:href="#aE"/></g><g id="u"><use transform="matrix(0.05,0,0,0.05,0,0)" xlink:href="#aD"/><use transform="matrix(0.05,0,0,0.05,12,0)" xlink:href="#L"/><use transform="matrix(0.05,0,0,0.05,22,0)" xlink:href="#R"/><use transform="matrix(0.05,0,0,0.05,27,0)" xlink:href="#aB"/><use transform="matrix(0.05,0,0,0.05,37,0)" xlink:href="#N"/><use transform="matrix(0.05,0,0,0.05,47,0)" xlink:href="#I"/><use transform="matrix(0.05,0,0,0.05,57,0)" xlink:href="#R"/><use transform="matrix(0.05,0,0,0.05,62,0)" xlink:href="#aa"/><use transform="matrix(0.05,0,0,0.05,65.95,0)" xlink:href="#J"/><use transform="matrix(0.05,0,0,0.05,74.95,0)" xlink:href="#S"/><use transform="matrix(0.05,0,0,0.05,84.95,0)" xlink:href="#R"/><use transform="matrix(0.05,0,0,0.05,89.95,0)" xlink:href="#aa"/><use transform="matrix(0.05,0,0,0.05,93.9,0)" xlink:href="#V"/><use transform="matrix(0.05,0,0,0.05,103.9,0)" xlink:href="#I"/></g><g id="v"><use transform="matrix(0.05,0,0,0.05,0,0)" xlink:href="#S"/><use transform="matrix(0.05,0,0,0.05,10,0)" xlink:href="#I"/><use transform="matrix(0.05,0,0,0.05,20,0)" xlink:href="#M"/></g><path d="M9 0v-24l116-142H16v-24h144v24L44-24h123V0H9" id="aF"/><g id="w"><use transform="matrix(0.05,0,0,0.05,0,0)" xlink:href="#aD"/><use transform="matrix(0.05,0,0,0.05,12,0)" xlink:href="#L"/><use transform="matrix(0.05,0,0,0.05,22,0)" xlink:href="#R"/><use transform="matrix(0.05,0,0,0.05,27,0)" xlink:href="#aB"/><use transform="matrix(0.05,0,0,0.05,37,0)" xlink:href="#V"/><use transform="matrix(0.05,0,0,0.05,47,0)" xlink:href="#T"/><use transform="matrix(0.05,0,0,0.05,52.95,0)" xlink:href="#aa"/><use transform="matrix(0.05,0,0,0.05,56.900000000000006,0)" xlink:href="#aF"/><use transform="matrix(0.05,0,0,0.05,65.9,0)" xlink:href="#S"/><use transform="matrix(0.05,0,0,0.05,75.9,0)" xlink:href="#R"/><use transform="matrix(0.05,0,0,0.05,80.9,0)" xlink:href="#aa"/><use transform="matrix(0.05,0,0,0.05,84.85000000000001,0)" xlink:href="#V"/><use transform="matrix(0.05,0,0,0.05,94.85000000000001,0)" xlink:href="#I"/></g><path d="M210-169c-67 3-38 105-44 169h-31v-121c0-29-5-50-35-48C34-165 62-65 56 0H25l-1-190h30c1 10-1 24 2 32 10-44 99-50 107 0 11-21 27-35 58-36 85-2 47 119 55 194h-31v-121c0-29-5-49-35-48" id="aG"/><g id="x"><use transform="matrix(0.05,0,0,0.05,0,0)" xlink:href="#Y"/><use transform="matrix(0.05,0,0,0.05,10,0)" xlink:href="#aa"/><use transform="matrix(0.05,0,0,0.05,13.949999999999998,0)" xlink:href="#aG"/><use transform="matrix(0.05,0,0,0.05,28.899999999999995,0)" xlink:href="#aa"/><use transform="matrix(0.05,0,0,0.05,32.85,0)" xlink:href="#R"/></g><g id="y"><use transform="matrix(0.05,0,0,0.05,0,0)" xlink:href="#K"/><use transform="matrix(0.05,0,0,0.05,3.95,0)" xlink:href="#V"/><use transform="matrix(0.05,0,0,0.05,13.949999999999998,0)" xlink:href="#Z"/><use transform="matrix(0.05,0,0,0.05,23.95,0)" xlink:href="#aa"/><use transform="matrix(0.05,0,0,0.05,27.899999999999995,0)" xlink:href="#I"/></g><g id="z"><use transform="matrix(0.05,0,0,0.05,0,0)" xlink:href="#S"/><use transform="matrix(0.05,0,0,0.05,10,0)" xlink:href="#R"/><use transform="matrix(0.05,0,0,0.05,15,0)" xlink:href="#R"/><use transform="matrix(0.05,0,0,0.05,20,0)" xlink:href="#N"/><use transform="matrix(0.05,0,0,0.05,30,0)" xlink:href="#aG"/><use transform="matrix(0.05,0,0,0.05,44.95,0)" xlink:href="#W"/><use transform="matrix(0.05,0,0,0.05,54.95,0)" xlink:href="#R"/><use transform="matrix(0.05,0,0,0.05,59.95,0)" xlink:href="#O"/></g><path d="M108 0H70L1-190h34L89-25l56-165h34" id="aH"/><g id="A"><use transform="matrix(0.05,0,0,0.05,0,0)" xlink:href="#G"/><use transform="matrix(0.05,0,0,0.05,10.5,0)" xlink:href="#G"/><use transform="matrix(0.05,0,0,0.05,21,0)" xlink:href="#aC"/><use transform="matrix(0.05,0,0,0.05,33,0)" xlink:href="#T"/><use transform="matrix(0.05,0,0,0.05,38.95,0)" xlink:href="#N"/><use transform="matrix(0.05,0,0,0.05,48.95,0)" xlink:href="#aH"/><use transform="matrix(0.05,0,0,0.05,57.95,0)" xlink:href="#N"/><use transform="matrix(0.05,0,0,0.05,67.95,0)" xlink:href="#I"/><use transform="matrix(0.05,0,0,0.05,77.95,0)" xlink:href="#R"/><use transform="matrix(0.05,0,0,0.05,82.95,0)" xlink:href="#O"/><use transform="matrix(0.05,0,0,0.05,91.95,0)" xlink:href="#P"/><use transform="matrix(0.05,0,0,0.05,102.45,0)" xlink:href="#P"/></g><path d="M137 0h-34L2-248h35l83 218 83-218h36" id="aI"/><path d="M101-234c-31-9-42 10-38 44h38v23H63V0H32v-167H5v-23h27c-7-52 17-82 69-68v24" id="aJ"/><path d="M179-190L93 31C79 59 56 82 12 73V49c39 6 53-20 64-50L1-190h34L92-34l54-156h33" id="aK"/><g id="B"><use transform="matrix(0.05,0,0,0.05,0,0)" xlink:href="#aI"/><use transform="matrix(0.05,0,0,0.05,11,0)" xlink:href="#N"/><use transform="matrix(0.05,0,0,0.05,21,0)" xlink:href="#T"/><use transform="matrix(0.05,0,0,0.05,26.950000000000003,0)" xlink:href="#aa"/><use transform="matrix(0.05,0,0,0.05,30.899999999999995,0)" xlink:href="#aJ"/><use transform="matrix(0.05,0,0,0.05,35.9,0)" xlink:href="#aK"/></g><g id="C"><use transform="matrix(0.05,0,0,0.05,0,0)" xlink:href="#aa"/><use transform="matrix(0.05,0,0,0.05,3.95,0)" xlink:href="#M"/><use transform="matrix(0.05,0,0,0.05,13.949999999999998,0)" xlink:href="#N"/><use transform="matrix(0.05,0,0,0.05,23.95,0)" xlink:href="#I"/><use transform="matrix(0.05,0,0,0.05,33.95,0)" xlink:href="#R"/><use transform="matrix(0.05,0,0,0.05,38.95,0)" xlink:href="#aa"/><use transform="matrix(0.05,0,0,0.05,42.900000000000006,0)" xlink:href="#R"/><use transform="matrix(0.05,0,0,0.05,47.900000000000006,0)" xlink:href="#aK"/></g><path d="M197 0v-115H63V0H30v-248h33v105h134v-105h34V0h-34" id="aL"/><g id="D"><use transform="matrix(0.05,0,0,0.05,0,0)" xlink:href="#aL"/><use transform="matrix(0.05,0,0,0.05,12.950000000000001,0)" xlink:href="#N"/><use transform="matrix(0.05,0,0,0.05,22.950000000000003,0)" xlink:href="#K"/><use transform="matrix(0.05,0,0,0.05,26.900000000000002,0)" xlink:href="#W"/><use transform="matrix(0.05,0,0,0.05,36.900000000000006,0)" xlink:href="#M"/><use transform="matrix(0.05,0,0,0.05,46.900000000000006,0)" xlink:href="#N"/><use transform="matrix(0.05,0,0,0.05,56.900000000000006,0)" xlink:href="#O"/><use transform="matrix(0.05,0,0,0.05,65.9,0)" xlink:href="#aE"/></g><g id="E"><use transform="matrix(0.05,0,0,0.05,0,0)" xlink:href="#aA"/><use transform="matrix(0.05,0,0,0.05,8.950000000000001,0)" xlink:href="#N"/><use transform="matrix(0.05,0,0,0.05,18.950000000000003,0)" xlink:href="#J"/><use transform="matrix(0.05,0,0,0.05,27.950000000000003,0)" xlink:href="#aB"/></g><g id="F"><use transform="matrix(0.05,0,0,0.05,0,0)" xlink:href="#G"/><use transform="matrix(0.05,0,0,0.05,10.5,0)" xlink:href="#G"/><use transform="matrix(0.05,0,0,0.05,21,0)" xlink:href="#aG"/><use transform="matrix(0.05,0,0,0.05,35.95,0)" xlink:href="#aa"/><use transform="matrix(0.05,0,0,0.05,39.900000000000006,0)" xlink:href="#R"/><use transform="matrix(0.05,0,0,0.05,44.900000000000006,0)" xlink:href="#aa"/><use transform="matrix(0.05,0,0,0.05,48.85000000000001,0)" xlink:href="#Z"/><use transform="matrix(0.05,0,0,0.05,58.85,0)" xlink:href="#S"/><use transform="matrix(0.05,0,0,0.05,68.85000000000001,0)" xlink:href="#R"/><use transform="matrix(0.05,0,0,0.05,73.85000000000001,0)" xlink:href="#N"/><use transform="matrix(0.05,0,0,0.05,83.85000000000001,0)" xlink:href="#O"/><use transform="matrix(0.05,0,0,0.05,92.85000000000001,0)" xlink:href="#P"/><use transform="matrix(0.05,0,0,0.05,103.35000000000001,0)" xlink:href="#P"/></g></defs></g></svg>