<svg xmlns="http://www.w3.org/2000/svg" xmlns:xlink="http://www.w3.org/1999/xlink" xmlns:lucid="lucid" width="1340.35" height="720"><g transform="translate(18.849999999999994 -80)" lucid:page-tab-id="N0xC4XDLnFUw"><path d="M0 0h1360v1760H0z" fill="#fff"/><path d="M129.75 119.75c0 10.9-8.84 19.75-19.75 19.75-10.9 0-19.75-8.84-19.75-19.75 0-10.9 8.84-19.75 19.75-19.75 10.9 0 19.75 8.84 19.75 19.75z" stroke="#000" stroke-width="2" fill="#fff"/><path d="M70 100h80v158H70z" fill="none"/><path d="M110 139.5v55.3l40 63.2m-40-63.2L70 258m0-98.75h80" stroke="#000" stroke-width="2" fill="none"/><use xlink:href="#a" transform="matrix(1,0,0,1,-10,258) translate(19.64999999999999 14.6)"/><use xlink:href="#b" transform="matrix(1,0,0,1,-10,258) translate(97.6 14.6)"/><use xlink:href="#c" transform="matrix(1,0,0,1,-10,258) translate(182.45 14.6)"/><path d="M370 190c0 33.14-35.82 60-80 60s-80-26.86-80-60 35.82-60 80-60 80 26.86 80 60z" stroke="#000" stroke-width="2" fill="#fff"/><use xlink:href="#d" transform="matrix(1,0,0,1,210,130) translate(40.005 63.15)"/><use xlink:href="#e" transform="matrix(1,0,0,1,210,130) translate(85.005 63.15)"/><path d="M150 190h60" stroke="#000" stroke-width="2" fill="none"/><path d="M150 191v-2zM210 190v.38l.03.62H210v-2h.03z"/><path d="M1269.75 329.75c0 10.9-8.84 19.75-19.75 19.75-10.9 0-19.75-8.84-19.75-19.75 0-10.9 8.84-19.75 19.75-19.75 10.9 0 19.75 8.84 19.75 19.75z" stroke="#000" stroke-width="2"/><path d="M1210 310h80v158h-80z" fill="none"/><path d="M1250 349.5v55.3l40 63.2m-40-63.2l-40 63.2m0-98.75h80" stroke="#000" stroke-width="2" fill="none"/><use xlink:href="#f" transform="matrix(1,0,0,1,1130,468) translate(69.6 14.6)"/><use xlink:href="#g" transform="matrix(1,0,0,1,1130,468) translate(120.5 14.6)"/><path d="M730 180c0 33.14-35.82 60-80 60s-80-26.86-80-60 35.82-60 80-60 80 26.86 80 60z" stroke="#000" stroke-width="2"/><use xlink:href="#h" transform="matrix(1,0,0,1,570,120) translate(18.62999999999999 51.9)"/><use xlink:href="#i" transform="matrix(1,0,0,1,570,120) translate(66.57999999999998 51.9)"/><use xlink:href="#j" transform="matrix(1,0,0,1,570,120) translate(62.505 73.5)"/><path d="M1110 180c0 33.14-35.82 60-80 60s-80-26.86-80-60 35.82-60 80-60 80 26.86 80 60z" stroke="#000" stroke-width="2"/><use xlink:href="#k" transform="matrix(1,0,0,1,950,120) translate(30.004999999999995 51.9)"/><use xlink:href="#l" transform="matrix(1,0,0,1,950,120) translate(94.005 51.9)"/><use xlink:href="#m" transform="matrix(1,0,0,1,950,120) translate(55.005 73.5)"/><path d="M1210 400h-.7l-.68-.06-.67-.07-.67-.1-.67-.13-.66-.15-.67-.2-.67-.22-.68-.25-.7-.3-.7-.32-.7-.37-.75-.42-.76-.48-.78-.54-.8-.62-.87-.7-.9-.82-.94-.92-1-1.07-1.06-1.24-1.15-1.44-1.25-1.7-1.36-2.06-1.5-2.47-1.67-3.04-1.88-3.8-2.17-4.9-2.56-6.48-3.14-9.07-4.18-13.93-7.24-28.6-17.96-75.64-4.18-13.93-3.14-9.07-2.56-6.5-2.17-4.87-1.88-3.8-1.67-3.03-1.5-2.47-1.35-2.05-1.24-1.7-1.14-1.46-1.07-1.25-1-1.07-.96-.92-.9-.8-.85-.72-.82-.62-.8-.54-.75-.5-.74-.4-.72-.4-.7-.32-.7-.3-.68-.24-.67-.22-.67-.2-.67-.14-.68-.13-.67-.1-.67-.07-.68-.05h-.7" stroke="#000" stroke-width="2" fill="none"/><path d="M1210 401.1l-.4-.2.4-.9zM1111.4 179.1l-.8 1.8-.62-.26.02-.64v-.38l-.05-1.2zM950 181h-10.48v-2H950zm-20.96 0H908.1v-2h20.94zm-143.52 0h-3.14v-2h3.14zm-13.62 0h-20.95v-2h20.95zm-31.42 0H730v-2h10.48zm157.14 0h-3.15v-2h3.15zM950.03 181l-.03-.62V179z"/><path d="M747.72 170.68L731.96 180l15.76 9.32-1 1.72-16.76-9.9.04-1.14v-.38l-.03-.76 16.74-9.9z"/><use xlink:href="#n" transform="matrix(1,0,0,1,785.5233500164999,169.2) translate(0 14.4)"/><path d="M379.56 190.82l-9.54.18-.04-2 9.54-.18zm28.6-.54l-19.07.36-.04-2 19.07-.36zm142.78-8.92l-19.08.36-.03-2 19.07-.36zm19.08-.36l-9.54.18-.04-2 9.54-.18z"/><path d="M570.03 181l-.02-.5zm-.03-1v.2l-.02-1.2zM387.55 180.35l-15.6 9.6L387.9 199l-1 1.75-16.94-9.6.04-1.13v-.38l-.03-.78 16.52-10.2z"/><use xlink:href="#o" transform="matrix(1,0,0,1,408.52735190885727,173.90673854929287) translate(0 14.4)"/><path d="M369.75 349.75c0 10.9-8.84 19.75-19.75 19.75-10.9 0-19.75-8.84-19.75-19.75 0-10.9 8.84-19.75 19.75-19.75 10.9 0 19.75 8.84 19.75 19.75z" stroke="#000" stroke-width="2" fill="#fff"/><path d="M310 330h80v158h-80z" fill="none"/><path d="M350 369.5v55.3l40 63.2m-40-63.2L310 488m0-98.75h80" stroke="#000" stroke-width="2" fill="none"/><use xlink:href="#p" transform="matrix(1,0,0,1,230,488) translate(46.599999999999994 14.6)"/><use xlink:href="#q" transform="matrix(1,0,0,1,230,488) translate(111.55 14.6)"/><path d="M730 360c0 33.14-35.82 60-80 60s-80-26.86-80-60 35.82-60 80-60 80 26.86 80 60z" stroke="#000" stroke-width="2" fill="#fff"/><use xlink:href="#r" transform="matrix(1,0,0,1,570,300) translate(28.07999999999999 51.9)"/><use xlink:href="#s" transform="matrix(1,0,0,1,570,300) translate(96.98 51.9)"/><use xlink:href="#t" transform="matrix(1,0,0,1,570,300) translate(28.029999999999994 73.5)"/><use xlink:href="#e" transform="matrix(1,0,0,1,570,300) translate(96.98 73.5)"/><path d="M390 420l7.9-.16 7.08-.45 6.43-.68 5.9-.87 5.5-1.05 5.2-1.2 4.96-1.4 4.8-1.56 4.76-1.77 4.8-2 4.97-2.36 5.4-2.82 6.42-3.7L475 393l19.88-12.97 6.42-3.7 5.4-2.84 4.98-2.36 4.8-2 4.75-1.78 4.8-1.56 4.97-1.4 5.2-1.2 5.5-1.05 5.9-.87 6.42-.67 7.07-.44 7.9-.16" stroke="#000" stroke-width="2" fill="none"/><path d="M390.04 421H390v-1.07zM570 360v.38l.02.58-.98.04-.08-2 1.07-.04zM651 300h-2v-10h2zm0-36.1h-2V260h2zm0-13.9h-2v-10h2zM651 300.03l-.95-.03h.95zm-.95-.03h-.95.9z"/><path d="M650 240h1.15l9.9 16.7-1.73 1.02-9.32-15.76-9.32 15.76-1.72-1 9.9-16.76z"/><use xlink:href="#u" transform="matrix(1,0,0,1,593.5250000000001,263.8904953855329) translate(0 14.4)"/><path d="M129.75 619.75c0 10.9-8.84 19.75-19.75 19.75-10.9 0-19.75-8.84-19.75-19.75 0-10.9 8.84-19.75 19.75-19.75 10.9 0 19.75 8.84 19.75 19.75z" stroke="#000" stroke-width="2" fill="#fff"/><path d="M70 600h80v158H70z" fill="none"/><path d="M110 639.5v55.3l40 63.2m-40-63.2L70 758m0-98.75h80" stroke="#000" stroke-width="2" fill="none"/><use xlink:href="#v" transform="matrix(1,0,0,1,-10,758) translate(13.150000000000006 14.6)"/><use xlink:href="#w" transform="matrix(1,0,0,1,-10,758) translate(98.00000000000001 14.6)"/><use xlink:href="#x" transform="matrix(1,0,0,1,-10,758) translate(167.9 14.6)"/><path d="M390 690c0 33.14-35.82 60-80 60s-80-26.86-80-60 35.82-60 80-60 80 26.86 80 60z" stroke="#000" stroke-width="2" fill="#fff"/><use xlink:href="#y" transform="matrix(1,0,0,1,230,630) translate(31.529999999999994 63.15)"/><use xlink:href="#e" transform="matrix(1,0,0,1,230,630) translate(93.48 63.15)"/><path d="M150 690h80" stroke="#000" stroke-width="2" fill="none"/><path d="M150 691v-2zM230 690v.38l.03.62H230v-2h.03z"/><path d="M1090 690c0 33.14-35.82 60-80 60s-80-26.86-80-60 35.82-60 80-60 80 26.86 80 60z" stroke="#000" stroke-width="2"/><use xlink:href="#k" transform="matrix(1,0,0,1,930,630) translate(30.32999999999999 51.9)"/><use xlink:href="#z" transform="matrix(1,0,0,1,930,630) translate(94.33 51.9)"/><use xlink:href="#A" transform="matrix(1,0,0,1,930,630) translate(19.054999999999986 73.5)"/><use xlink:href="#m" transform="matrix(1,0,0,1,930,630) translate(90.955 73.5)"/><path d="M1210 400l-.78.02-.76.04-.75.08-.75.1-.74.16-.74.17-.76.2-.76.26-.76.3-.78.3-.8.4-.8.4-.85.5-.86.55-.9.62-.93.7-.98.8-1.03.93-1.08 1.06-1.16 1.2-1.22 1.43-1.32 1.67-1.43 1.96-1.56 2.35-1.7 2.86-1.92 3.5-2.17 4.37-2.48 5.6-2.92 7.4-3.54 10.22-4.56 15.17-6.72 26.47-29.68 132.88-4.56 15.17-3.54 10.22-2.92 7.4-2.5 5.6-2.16 4.38-1.9 3.5-1.73 2.84-1.57 2.34-1.43 1.96-1.32 1.67-1.22 1.42-1.15 1.2-1.07 1.07-1.02.92-.97.8-.93.7-.9.62-.85.55-.84.5-.8.4-.8.4-.78.3-.76.3-.76.25-.76.2-.75.18-.75.15-.76.1-.76.1-.76.03-.78.02" stroke="#000" stroke-width="2" fill="none"/><path d="M1210 400l-.38-.93.38-.15zM1090.38 690.93l-.4.16.02-1.1z"/><path d="M730 690c0 33.14-35.82 60-80 60s-80-26.86-80-60 35.82-60 80-60 80 26.86 80 60z" stroke="#000" stroke-width="2"/><use xlink:href="#B" transform="matrix(1,0,0,1,570,630) translate(15.079999999999993 63.15)"/><use xlink:href="#C" transform="matrix(1,0,0,1,570,630) translate(67.97999999999999 63.15)"/><path d="M739.48 691H730v-2h9.48zm28.42 0h-18.95v-2h18.95zm142.15 0H891.1v-2h18.95zm18.95 0h-9.48v-2H929z"/><path d="M748.58 680.17L731.96 690l16.62 9.83-1 1.72-17.62-10.4.04-1.15v-.38l-.03-.76 17.6-10.4zM930 690v.38l.03.62H929v-2h1.03z"/><g><use xlink:href="#n" transform="matrix(1,0,0,1,775.0249955586792,679.2) translate(0 14.4)"/></g><path d="M570 691h-9.94v-2H570zm-139.22 0h-19.9v-2h19.9zm-29.84 0H391v-2h9.94zM570.03 691l-.03-.62V689z"/><path d="M408.72 680.68L392.96 690l15.76 9.32-1 1.72-17.74-10.48.02-.56V689.42l17.7-10.46z"/><g><use xlink:href="#o" transform="matrix(1,0,0,1,432.55,679.2) translate(0 14.4)"/></g><path d="M730 490c0 33.14-35.82 60-80 60s-80-26.86-80-60 35.82-60 80-60 80 26.86 80 60z" stroke="#000" stroke-width="2" fill="#fff"/><g><use xlink:href="#D" transform="matrix(1,0,0,1,570,430) translate(34.55499999999999 40.65)"/><use xlink:href="#E" transform="matrix(1,0,0,1,570,430) translate(71.505 40.65)"/><use xlink:href="#F" transform="matrix(1,0,0,1,570,430) translate(28.554999999999993 62.25)"/><use xlink:href="#G" transform="matrix(1,0,0,1,570,430) translate(40.53 83.85000000000001)"/></g><path d="M651 630h-2v-8.9h2zm0-17.78h-2v-17.78h2zm0-53.33h-2V550h2zM650 550h-1 1.9z"/><path d="M661.04 613.3l-9.9 16.74L650 630h-1.15l-9.9-16.7 1.73-1.02 9.32 15.76 9.32-15.76z"/><g><use xlink:href="#u" transform="matrix(1,0,0,1,593.5250000000001,566.3593364130579) translate(0 14.4)"/></g><path d="M570 490l-6.9-.14-6.28-.4-5.76-.6-5.35-.8-5-.94-4.76-1.12-4.55-1.27-4.4-1.43-4.33-1.6-4.28-1.8-4.35-2.05-4.47-2.34-4.78-2.75-5.38-3.42-6.82-4.75-32.02-23.9-5.38-3.43-4.78-2.76-4.47-2.35-4.34-2.04-4.27-1.8-4.32-1.6-4.4-1.43-4.54-1.27-4.75-1.12-5-.95-5.36-.8-5.76-.6-6.27-.4-6.9-.13" stroke="#000" stroke-width="2" fill="none"/><path d="M570 490v.38l.03.62h-.08l.05-1.16zM390.05 419l-.05 1v-1z"/><defs><path d="M185-189c-5-48-123-54-124 2 14 75 158 14 163 119 3 78-121 87-175 55-17-10-28-26-33-46l33-7c5 56 141 63 141-1 0-78-155-14-162-118-5-82 145-84 179-34 5 7 8 16 11 25" id="H"/><path d="M59-47c-2 24 18 29 38 22v24C64 9 27 4 27-40v-127H5v-23h24l9-43h21v43h35v23H59v120" id="I"/><path d="M141-36C126-15 110 5 73 4 37 3 15-17 15-53c-1-64 63-63 125-63 3-35-9-54-41-54-24 1-41 7-42 31l-33-3c5-37 33-52 76-52 45 0 72 20 72 64v82c-1 20 7 32 28 27v20c-31 9-61-2-59-35zM48-53c0 20 12 33 32 33 41-3 63-29 60-74-43 2-92-5-92 41" id="J"/><path d="M117-194c89-4 53 116 60 194h-32v-121c0-31-8-49-39-48C34-167 62-67 57 0H25l-1-190h30c1 10-1 24 2 32 11-22 29-35 61-36" id="K"/><path d="M85-194c31 0 48 13 60 33l-1-100h32l1 261h-30c-2-10 0-23-3-31C134-8 116 4 85 4 32 4 16-35 15-94c0-66 23-100 70-100zm9 24c-40 0-46 34-46 75 0 40 6 74 45 74 42 0 51-32 51-76 0-42-9-74-50-73" id="L"/><path d="M114-163C36-179 61-72 57 0H25l-1-190h30c1 12-1 29 2 39 6-27 23-49 58-41v29" id="M"/><g id="a"><use transform="matrix(0.05,0,0,0.05,0,0)" xlink:href="#H"/><use transform="matrix(0.05,0,0,0.05,12,0)" xlink:href="#I"/><use transform="matrix(0.05,0,0,0.05,17,0)" xlink:href="#J"/><use transform="matrix(0.05,0,0,0.05,27,0)" xlink:href="#K"/><use transform="matrix(0.05,0,0,0.05,37,0)" xlink:href="#L"/><use transform="matrix(0.05,0,0,0.05,47,0)" xlink:href="#J"/><use transform="matrix(0.05,0,0,0.05,57,0)" xlink:href="#M"/><use transform="matrix(0.05,0,0,0.05,62.95,0)" xlink:href="#L"/></g><path d="M212-179c-10-28-35-45-73-45-59 0-87 40-87 99 0 60 29 101 89 101 43 0 62-24 78-52l27 14C228-24 195 4 139 4 59 4 22-46 18-125c-6-104 99-153 187-111 19 9 31 26 39 46" id="N"/><path d="M100-194c62-1 85 37 85 99 1 63-27 99-86 99S16-35 15-95c0-66 28-99 85-99zM99-20c44 1 53-31 53-75 0-43-8-75-51-75s-53 32-53 75 10 74 51 75" id="O"/><path d="M115-194c55 1 70 41 70 98S169 2 115 4C84 4 66-9 55-30l1 105H24l-1-265h31l2 30c10-21 28-34 59-34zm-8 174c40 0 45-34 45-75s-6-73-45-74c-42 0-51 32-51 76 0 43 10 73 51 73" id="P"/><path d="M100-194c63 0 86 42 84 106H49c0 40 14 67 53 68 26 1 43-12 49-29l28 8c-11 28-37 45-77 45C44 4 14-33 15-96c1-61 26-98 85-98zm52 81c6-60-76-77-97-28-3 7-6 17-6 28h103" id="Q"/><g id="b"><use transform="matrix(0.05,0,0,0.05,0,0)" xlink:href="#N"/><use transform="matrix(0.05,0,0,0.05,12.950000000000001,0)" xlink:href="#O"/><use transform="matrix(0.05,0,0,0.05,22.950000000000003,0)" xlink:href="#M"/><use transform="matrix(0.05,0,0,0.05,28.900000000000002,0)" xlink:href="#P"/><use transform="matrix(0.05,0,0,0.05,38.900000000000006,0)" xlink:href="#O"/><use transform="matrix(0.05,0,0,0.05,48.900000000000006,0)" xlink:href="#M"/><use transform="matrix(0.05,0,0,0.05,54.85,0)" xlink:href="#J"/><use transform="matrix(0.05,0,0,0.05,64.85000000000001,0)" xlink:href="#I"/><use transform="matrix(0.05,0,0,0.05,69.85000000000001,0)" xlink:href="#Q"/></g><path d="M232-93c-1 65-40 97-104 97C67 4 28-28 28-90v-158h33c8 89-33 224 67 224 102 0 64-133 71-224h33v155" id="R"/><path d="M135-143c-3-34-86-38-87 0 15 53 115 12 119 90S17 21 10-45l28-5c4 36 97 45 98 0-10-56-113-15-118-90-4-57 82-63 122-42 12 7 21 19 24 35" id="S"/><g id="c"><use transform="matrix(0.05,0,0,0.05,0,0)" xlink:href="#R"/><use transform="matrix(0.05,0,0,0.05,12.950000000000001,0)" xlink:href="#S"/><use transform="matrix(0.05,0,0,0.05,21.950000000000003,0)" xlink:href="#Q"/><use transform="matrix(0.05,0,0,0.05,31.950000000000003,0)" xlink:href="#M"/></g><path d="M30 0v-248h33v221h125V0H30" id="T"/><g id="d"><use transform="matrix(0.05,0,0,0.05,0,0)" xlink:href="#T"/><use transform="matrix(0.05,0,0,0.05,10,0)" xlink:href="#O"/><use transform="matrix(0.05,0,0,0.05,20,0)" xlink:href="#J"/><use transform="matrix(0.05,0,0,0.05,30,0)" xlink:href="#L"/></g><g id="e"><use transform="matrix(0.05,0,0,0.05,0,0)" xlink:href="#L"/><use transform="matrix(0.05,0,0,0.05,10,0)" xlink:href="#J"/><use transform="matrix(0.05,0,0,0.05,20,0)" xlink:href="#I"/><use transform="matrix(0.05,0,0,0.05,25,0)" xlink:href="#J"/></g><path d="M96-169c-40 0-48 33-48 73s9 75 48 75c24 0 41-14 43-38l32 2c-6 37-31 61-74 61-59 0-76-41-82-99-10-93 101-131 147-64 4 7 5 14 7 22l-32 3c-4-21-16-35-41-35" id="U"/><path d="M24-231v-30h32v30H24zM24 0v-190h32V0H24" id="V"/><g id="f"><use transform="matrix(0.05,0,0,0.05,0,0)" xlink:href="#H"/><use transform="matrix(0.05,0,0,0.05,12,0)" xlink:href="#U"/><use transform="matrix(0.05,0,0,0.05,21,0)" xlink:href="#M"/><use transform="matrix(0.05,0,0,0.05,26.950000000000003,0)" xlink:href="#V"/><use transform="matrix(0.05,0,0,0.05,30.899999999999995,0)" xlink:href="#P"/><use transform="matrix(0.05,0,0,0.05,40.9,0)" xlink:href="#I"/></g><path d="M194 0L95-120 63-95V0H30v-248h33v124l119-124h40L117-140 236 0h-42" id="W"/><g id="g"><use transform="matrix(0.05,0,0,0.05,0,0)" xlink:href="#W"/><use transform="matrix(0.05,0,0,0.05,12,0)" xlink:href="#V"/><use transform="matrix(0.05,0,0,0.05,15.949999999999998,0)" xlink:href="#L"/><use transform="matrix(0.05,0,0,0.05,25.950000000000003,0)" xlink:href="#L"/><use transform="matrix(0.05,0,0,0.05,35.95,0)" xlink:href="#V"/><use transform="matrix(0.05,0,0,0.05,39.900000000000006,0)" xlink:href="#Q"/></g><path fill="#fff" d="M185-189c-5-48-123-54-124 2 14 75 158 14 163 119 3 78-121 87-175 55-17-10-28-26-33-46l33-7c5 56 141 63 141-1 0-78-155-14-162-118-5-82 145-84 179-34 5 7 8 16 11 25" id="X"/><path fill="#fff" d="M59-47c-2 24 18 29 38 22v24C64 9 27 4 27-40v-127H5v-23h24l9-43h21v43h35v23H59v120" id="Y"/><path fill="#fff" d="M100-194c62-1 85 37 85 99 1 63-27 99-86 99S16-35 15-95c0-66 28-99 85-99zM99-20c44 1 53-31 53-75 0-43-8-75-51-75s-53 32-53 75 10 74 51 75" id="Z"/><path fill="#fff" d="M114-163C36-179 61-72 57 0H25l-1-190h30c1 12-1 29 2 39 6-27 23-49 58-41v29" id="aa"/><path fill="#fff" d="M100-194c63 0 86 42 84 106H49c0 40 14 67 53 68 26 1 43-12 49-29l28 8c-11 28-37 45-77 45C44 4 14-33 15-96c1-61 26-98 85-98zm52 81c6-60-76-77-97-28-3 7-6 17-6 28h103" id="ab"/><g id="h"><use transform="matrix(0.05,0,0,0.05,0,0)" xlink:href="#X"/><use transform="matrix(0.05,0,0,0.05,12,0)" xlink:href="#Y"/><use transform="matrix(0.05,0,0,0.05,17,0)" xlink:href="#Z"/><use transform="matrix(0.05,0,0,0.05,27,0)" xlink:href="#aa"/><use transform="matrix(0.05,0,0,0.05,32.95,0)" xlink:href="#ab"/></g><path fill="#fff" d="M210-169c-67 3-38 105-44 169h-31v-121c0-29-5-50-35-48C34-165 62-65 56 0H25l-1-190h30c1 10-1 24 2 32 10-44 99-50 107 0 11-21 27-35 58-36 85-2 47 119 55 194h-31v-121c0-29-5-49-35-48" id="ac"/><path fill="#fff" d="M141-36C126-15 110 5 73 4 37 3 15-17 15-53c-1-64 63-63 125-63 3-35-9-54-41-54-24 1-41 7-42 31l-33-3c5-37 33-52 76-52 45 0 72 20 72 64v82c-1 20 7 32 28 27v20c-31 9-61-2-59-35zM48-53c0 20 12 33 32 33 41-3 63-29 60-74-43 2-92-5-92 41" id="ad"/><path fill="#fff" d="M24 0v-261h32V0H24" id="ae"/><path fill="#fff" d="M24-231v-30h32v30H24zM24 0v-190h32V0H24" id="af"/><path fill="#fff" d="M96-169c-40 0-48 33-48 73s9 75 48 75c24 0 41-14 43-38l32 2c-6 37-31 61-74 61-59 0-76-41-82-99-10-93 101-131 147-64 4 7 5 14 7 22l-32 3c-4-21-16-35-41-35" id="ag"/><path fill="#fff" d="M84 4C-5 8 30-112 23-190h32v120c0 31 7 50 39 49 72-2 45-101 50-169h31l1 190h-30c-1-10 1-25-2-33-11 22-28 36-60 37" id="ah"/><path fill="#fff" d="M135-143c-3-34-86-38-87 0 15 53 115 12 119 90S17 21 10-45l28-5c4 36 97 45 98 0-10-56-113-15-118-90-4-57 82-63 122-42 12 7 21 19 24 35" id="ai"/><g id="i"><use transform="matrix(0.05,0,0,0.05,0,0)" xlink:href="#ac"/><use transform="matrix(0.05,0,0,0.05,14.950000000000001,0)" xlink:href="#ad"/><use transform="matrix(0.05,0,0,0.05,24.950000000000003,0)" xlink:href="#ae"/><use transform="matrix(0.05,0,0,0.05,28.900000000000002,0)" xlink:href="#af"/><use transform="matrix(0.05,0,0,0.05,32.85,0)" xlink:href="#ag"/><use transform="matrix(0.05,0,0,0.05,41.85,0)" xlink:href="#af"/><use transform="matrix(0.05,0,0,0.05,45.800000000000004,0)" xlink:href="#Z"/><use transform="matrix(0.05,0,0,0.05,55.800000000000004,0)" xlink:href="#ah"/><use transform="matrix(0.05,0,0,0.05,65.80000000000001,0)" xlink:href="#ai"/></g><path fill="#fff" d="M85-194c31 0 48 13 60 33l-1-100h32l1 261h-30c-2-10 0-23-3-31C134-8 116 4 85 4 32 4 16-35 15-94c0-66 23-100 70-100zm9 24c-40 0-46 34-46 75 0 40 6 74 45 74 42 0 51-32 51-76 0-42-9-74-50-73" id="aj"/><g id="j"><use transform="matrix(0.05,0,0,0.05,0,0)" xlink:href="#aj"/><use transform="matrix(0.05,0,0,0.05,10,0)" xlink:href="#ad"/><use transform="matrix(0.05,0,0,0.05,20,0)" xlink:href="#Y"/><use transform="matrix(0.05,0,0,0.05,25,0)" xlink:href="#ad"/></g><path fill="#fff" d="M30 0v-248h33v221h125V0H30" id="ak"/><path fill="#fff" d="M117-194c89-4 53 116 60 194h-32v-121c0-31-8-49-39-48C34-167 62-67 57 0H25l-1-190h30c1 10-1 24 2 32 11-22 29-35 61-36" id="al"/><path fill="#fff" d="M106-169C34-169 62-67 57 0H25v-261h32l-1 103c12-21 28-36 61-36 89 0 53 116 60 194h-32v-121c2-32-8-49-39-48" id="am"/><g id="k"><use transform="matrix(0.05,0,0,0.05,0,0)" xlink:href="#ak"/><use transform="matrix(0.05,0,0,0.05,10,0)" xlink:href="#ad"/><use transform="matrix(0.05,0,0,0.05,20,0)" xlink:href="#ah"/><use transform="matrix(0.05,0,0,0.05,30,0)" xlink:href="#al"/><use transform="matrix(0.05,0,0,0.05,40,0)" xlink:href="#ag"/><use transform="matrix(0.05,0,0,0.05,49,0)" xlink:href="#am"/></g><path fill="#fff" d="M195 0l-74-108L45 0H8l94-129-87-119h37l69 98 67-98h37l-84 118L233 0h-38" id="an"/><g id="l"><use transform="matrix(0.05,0,0,0.05,0,0)" xlink:href="#an"/><use transform="matrix(0.05,0,0,0.05,12,0)" xlink:href="#X"/><use transform="matrix(0.05,0,0,0.05,24,0)" xlink:href="#X"/></g><path fill="#fff" d="M205 0l-28-72H64L36 0H1l101-248h38L239 0h-34zm-38-99l-47-123c-12 45-31 82-46 123h93" id="ao"/><path fill="#fff" d="M143 0L79-87 56-68V0H24v-261h32v163l83-92h37l-77 82L181 0h-38" id="ap"/><g id="m"><use transform="matrix(0.05,0,0,0.05,0,0)" xlink:href="#ao"/><use transform="matrix(0.05,0,0,0.05,12,0)" xlink:href="#Y"/><use transform="matrix(0.05,0,0,0.05,17,0)" xlink:href="#Y"/><use transform="matrix(0.05,0,0,0.05,22,0)" xlink:href="#ad"/><use transform="matrix(0.05,0,0,0.05,32,0)" xlink:href="#ag"/><use transform="matrix(0.05,0,0,0.05,41,0)" xlink:href="#ap"/></g><path d="M18-100v-36l175-74v27L42-118l151 64v27" id="aq"/><path d="M33 0v-248h34V0H33" id="ar"/><path d="M24 0v-261h32V0H24" id="as"/><path d="M84 4C-5 8 30-112 23-190h32v120c0 31 7 50 39 49 72-2 45-101 50-169h31l1 190h-30c-1-10 1-25-2-33-11 22-28 36-60 37" id="at"/><path d="M18-27v-27l151-64-151-65v-27l175 74v36" id="au"/><g id="n"><use transform="matrix(0.05,0,0,0.05,0,0)" xlink:href="#aq"/><use transform="matrix(0.05,0,0,0.05,10.5,0)" xlink:href="#aq"/><use transform="matrix(0.05,0,0,0.05,21,0)" xlink:href="#ar"/><use transform="matrix(0.05,0,0,0.05,26,0)" xlink:href="#K"/><use transform="matrix(0.05,0,0,0.05,36,0)" xlink:href="#U"/><use transform="matrix(0.05,0,0,0.05,45,0)" xlink:href="#as"/><use transform="matrix(0.05,0,0,0.05,48.95,0)" xlink:href="#at"/><use transform="matrix(0.05,0,0,0.05,58.95,0)" xlink:href="#L"/><use transform="matrix(0.05,0,0,0.05,68.95,0)" xlink:href="#Q"/><use transform="matrix(0.05,0,0,0.05,78.95,0)" xlink:href="#S"/><use transform="matrix(0.05,0,0,0.05,87.95,0)" xlink:href="#au"/><use transform="matrix(0.05,0,0,0.05,98.45,0)" xlink:href="#au"/></g><path d="M127-220V0H93v-220H8v-28h204v28h-85" id="av"/><path d="M106-169C34-169 62-67 57 0H25v-261h32l-1 103c12-21 28-36 61-36 89 0 53 116 60 194h-32v-121c2-32-8-49-39-48" id="aw"/><g id="o"><use transform="matrix(0.05,0,0,0.05,0,0)" xlink:href="#aq"/><use transform="matrix(0.05,0,0,0.05,10.5,0)" xlink:href="#aq"/><use transform="matrix(0.05,0,0,0.05,21,0)" xlink:href="#av"/><use transform="matrix(0.05,0,0,0.05,31.950000000000003,0)" xlink:href="#aw"/><use transform="matrix(0.05,0,0,0.05,41.95,0)" xlink:href="#M"/><use transform="matrix(0.05,0,0,0.05,47.900000000000006,0)" xlink:href="#Q"/><use transform="matrix(0.05,0,0,0.05,57.900000000000006,0)" xlink:href="#J"/><use transform="matrix(0.05,0,0,0.05,67.9,0)" xlink:href="#I"/><use transform="matrix(0.05,0,0,0.05,72.9,0)" xlink:href="#Q"/><use transform="matrix(0.05,0,0,0.05,82.9,0)" xlink:href="#K"/><use transform="matrix(0.05,0,0,0.05,92.9,0)" xlink:href="#S"/><use transform="matrix(0.05,0,0,0.05,101.9,0)" xlink:href="#au"/><use transform="matrix(0.05,0,0,0.05,112.4,0)" xlink:href="#au"/></g><path d="M179-190L93 31C79 59 56 82 12 73V49c39 6 53-20 64-50L1-190h34L92-34l54-156h33" id="ax"/><path d="M210-169c-67 3-38 105-44 169h-31v-121c0-29-5-50-35-48C34-165 62-65 56 0H25l-1-190h30c1 10-1 24 2 32 10-44 99-50 107 0 11-21 27-35 58-36 85-2 47 119 55 194h-31v-121c0-29-5-49-35-48" id="ay"/><g id="p"><use transform="matrix(0.05,0,0,0.05,0,0)" xlink:href="#H"/><use transform="matrix(0.05,0,0,0.05,12,0)" xlink:href="#ax"/><use transform="matrix(0.05,0,0,0.05,21,0)" xlink:href="#S"/><use transform="matrix(0.05,0,0,0.05,30,0)" xlink:href="#I"/><use transform="matrix(0.05,0,0,0.05,35,0)" xlink:href="#Q"/><use transform="matrix(0.05,0,0,0.05,45,0)" xlink:href="#ay"/></g><path d="M30-248c118-7 216 8 213 122C240-48 200 0 122 0H30v-248zM63-27c89 8 146-16 146-99s-60-101-146-95v194" id="az"/><path d="M108 0H70L1-190h34L89-25l56-165h34" id="aA"/><g id="q"><use transform="matrix(0.05,0,0,0.05,0,0)" xlink:href="#az"/><use transform="matrix(0.05,0,0,0.05,12.950000000000001,0)" xlink:href="#Q"/><use transform="matrix(0.05,0,0,0.05,22.950000000000003,0)" xlink:href="#aA"/><use transform="matrix(0.05,0,0,0.05,31.950000000000003,0)" xlink:href="#Q"/><use transform="matrix(0.05,0,0,0.05,41.95,0)" xlink:href="#as"/><use transform="matrix(0.05,0,0,0.05,45.900000000000006,0)" xlink:href="#O"/><use transform="matrix(0.05,0,0,0.05,55.900000000000006,0)" xlink:href="#P"/><use transform="matrix(0.05,0,0,0.05,65.9,0)" xlink:href="#Q"/><use transform="matrix(0.05,0,0,0.05,75.9,0)" xlink:href="#M"/></g><path d="M9 0v-24l116-142H16v-24h144v24L44-24h123V0H9" id="aB"/><g id="r"><use transform="matrix(0.05,0,0,0.05,0,0)" xlink:href="#H"/><use transform="matrix(0.05,0,0,0.05,12,0)" xlink:href="#J"/><use transform="matrix(0.05,0,0,0.05,22,0)" xlink:href="#K"/><use transform="matrix(0.05,0,0,0.05,32,0)" xlink:href="#V"/><use transform="matrix(0.05,0,0,0.05,35.95,0)" xlink:href="#I"/><use transform="matrix(0.05,0,0,0.05,40.95,0)" xlink:href="#V"/><use transform="matrix(0.05,0,0,0.05,44.900000000000006,0)" xlink:href="#aB"/><use transform="matrix(0.05,0,0,0.05,53.900000000000006,0)" xlink:href="#Q"/></g><g id="s"><use transform="matrix(0.05,0,0,0.05,0,0)" xlink:href="#at"/><use transform="matrix(0.05,0,0,0.05,10,0)" xlink:href="#S"/><use transform="matrix(0.05,0,0,0.05,19,0)" xlink:href="#Q"/><use transform="matrix(0.05,0,0,0.05,29,0)" xlink:href="#M"/></g><g id="t"><use transform="matrix(0.05,0,0,0.05,0,0)" xlink:href="#V"/><use transform="matrix(0.05,0,0,0.05,3.95,0)" xlink:href="#K"/><use transform="matrix(0.05,0,0,0.05,13.949999999999998,0)" xlink:href="#P"/><use transform="matrix(0.05,0,0,0.05,23.95,0)" xlink:href="#at"/><use transform="matrix(0.05,0,0,0.05,33.95,0)" xlink:href="#I"/><use transform="matrix(0.05,0,0,0.05,38.95,0)" xlink:href="#I"/><use transform="matrix(0.05,0,0,0.05,43.95,0)" xlink:href="#Q"/><use transform="matrix(0.05,0,0,0.05,53.95,0)" xlink:href="#L"/></g><path d="M30-248c87 1 191-15 191 75 0 78-77 80-158 76V0H30v-248zm33 125c57 0 124 11 124-50 0-59-68-47-124-48v98" id="aC"/><g id="u"><use transform="matrix(0.05,0,0,0.05,0,0)" xlink:href="#aq"/><use transform="matrix(0.05,0,0,0.05,10.5,0)" xlink:href="#aq"/><use transform="matrix(0.05,0,0,0.05,21,0)" xlink:href="#aC"/><use transform="matrix(0.05,0,0,0.05,33,0)" xlink:href="#M"/><use transform="matrix(0.05,0,0,0.05,38.95,0)" xlink:href="#Q"/><use transform="matrix(0.05,0,0,0.05,48.95,0)" xlink:href="#aA"/><use transform="matrix(0.05,0,0,0.05,57.95,0)" xlink:href="#Q"/><use transform="matrix(0.05,0,0,0.05,67.95,0)" xlink:href="#K"/><use transform="matrix(0.05,0,0,0.05,77.95,0)" xlink:href="#I"/><use transform="matrix(0.05,0,0,0.05,82.95,0)" xlink:href="#S"/><use transform="matrix(0.05,0,0,0.05,91.95,0)" xlink:href="#au"/><use transform="matrix(0.05,0,0,0.05,102.45,0)" xlink:href="#au"/></g><g id="v"><use transform="matrix(0.05,0,0,0.05,0,0)" xlink:href="#N"/><use transform="matrix(0.05,0,0,0.05,12.950000000000001,0)" xlink:href="#O"/><use transform="matrix(0.05,0,0,0.05,22.950000000000003,0)" xlink:href="#M"/><use transform="matrix(0.05,0,0,0.05,28.900000000000002,0)" xlink:href="#P"/><use transform="matrix(0.05,0,0,0.05,38.900000000000006,0)" xlink:href="#O"/><use transform="matrix(0.05,0,0,0.05,48.900000000000006,0)" xlink:href="#M"/><use transform="matrix(0.05,0,0,0.05,54.85,0)" xlink:href="#J"/><use transform="matrix(0.05,0,0,0.05,64.85000000000001,0)" xlink:href="#I"/><use transform="matrix(0.05,0,0,0.05,69.85000000000001,0)" xlink:href="#Q"/></g><g id="w"><use transform="matrix(0.05,0,0,0.05,0,0)" xlink:href="#H"/><use transform="matrix(0.05,0,0,0.05,12,0)" xlink:href="#Q"/><use transform="matrix(0.05,0,0,0.05,22,0)" xlink:href="#U"/><use transform="matrix(0.05,0,0,0.05,31,0)" xlink:href="#at"/><use transform="matrix(0.05,0,0,0.05,41,0)" xlink:href="#M"/><use transform="matrix(0.05,0,0,0.05,46.95,0)" xlink:href="#V"/><use transform="matrix(0.05,0,0,0.05,50.900000000000006,0)" xlink:href="#I"/><use transform="matrix(0.05,0,0,0.05,55.900000000000006,0)" xlink:href="#ax"/></g><path d="M205 0l-28-72H64L36 0H1l101-248h38L239 0h-34zm-38-99l-47-123c-12 45-31 82-46 123h93" id="aD"/><g id="x"><use transform="matrix(0.05,0,0,0.05,0,0)" xlink:href="#aD"/><use transform="matrix(0.05,0,0,0.05,12,0)" xlink:href="#K"/><use transform="matrix(0.05,0,0,0.05,22,0)" xlink:href="#J"/><use transform="matrix(0.05,0,0,0.05,32,0)" xlink:href="#as"/><use transform="matrix(0.05,0,0,0.05,35.95,0)" xlink:href="#ax"/><use transform="matrix(0.05,0,0,0.05,44.95,0)" xlink:href="#S"/><use transform="matrix(0.05,0,0,0.05,53.95,0)" xlink:href="#I"/></g><g id="y"><use transform="matrix(0.05,0,0,0.05,0,0)" xlink:href="#H"/><use transform="matrix(0.05,0,0,0.05,12,0)" xlink:href="#Q"/><use transform="matrix(0.05,0,0,0.05,22,0)" xlink:href="#U"/><use transform="matrix(0.05,0,0,0.05,31,0)" xlink:href="#at"/><use transform="matrix(0.05,0,0,0.05,41,0)" xlink:href="#M"/><use transform="matrix(0.05,0,0,0.05,46.95,0)" xlink:href="#Q"/></g><path fill="#fff" d="M140-251c81 0 123 46 123 126C263-53 228-8 163 1c7 30 30 48 69 40v23c-55 16-95-15-103-61C56-3 17-48 17-125c0-80 42-126 123-126zm0 227c63 0 89-41 89-101s-29-99-89-99c-61 0-89 39-89 99S79-25 140-24" id="aE"/><g id="z"><use transform="matrix(0.05,0,0,0.05,0,0)" xlink:href="#X"/><use transform="matrix(0.05,0,0,0.05,12,0)" xlink:href="#aE"/><use transform="matrix(0.05,0,0,0.05,26,0)" xlink:href="#ak"/></g><path fill="#fff" d="M33 0v-248h34V0H33" id="aF"/><path fill="#fff" d="M24-231v-30h32v30H24zM-9 49c24 4 33-6 33-30v-209h32V24c2 40-23 58-65 49V49" id="aG"/><g id="A"><use transform="matrix(0.05,0,0,0.05,0,0)" xlink:href="#aF"/><use transform="matrix(0.05,0,0,0.05,5,0)" xlink:href="#al"/><use transform="matrix(0.05,0,0,0.05,15,0)" xlink:href="#aG"/><use transform="matrix(0.05,0,0,0.05,18.95,0)" xlink:href="#ab"/><use transform="matrix(0.05,0,0,0.05,28.950000000000003,0)" xlink:href="#ag"/><use transform="matrix(0.05,0,0,0.05,37.95,0)" xlink:href="#Y"/><use transform="matrix(0.05,0,0,0.05,42.95,0)" xlink:href="#af"/><use transform="matrix(0.05,0,0,0.05,46.900000000000006,0)" xlink:href="#Z"/><use transform="matrix(0.05,0,0,0.05,56.900000000000006,0)" xlink:href="#al"/></g><path fill="#fff" d="M30-248c118-7 216 8 213 122C240-48 200 0 122 0H30v-248zM63-27c89 8 146-16 146-99s-60-101-146-95v194" id="aH"/><path fill="#fff" d="M115-194c55 1 70 41 70 98S169 2 115 4C84 4 66-9 55-30l1 105H24l-1-265h31l2 30c10-21 28-34 59-34zm-8 174c40 0 45-34 45-75s-6-73-45-74c-42 0-51 32-51 76 0 43 10 73 51 73" id="aI"/><g id="B"><use transform="matrix(0.05,0,0,0.05,0,0)" xlink:href="#aH"/><use transform="matrix(0.05,0,0,0.05,12.950000000000001,0)" xlink:href="#ah"/><use transform="matrix(0.05,0,0,0.05,22.950000000000003,0)" xlink:href="#ac"/><use transform="matrix(0.05,0,0,0.05,37.900000000000006,0)" xlink:href="#aI"/></g><path fill="#fff" d="M115-194c53 0 69 39 70 98 0 66-23 100-70 100C84 3 66-7 56-30L54 0H23l1-261h32v101c10-23 28-34 59-34zm-8 174c40 0 45-34 45-75 0-40-5-75-45-74-42 0-51 32-51 76 0 43 10 73 51 73" id="aJ"/><g id="C"><use transform="matrix(0.05,0,0,0.05,0,0)" xlink:href="#aH"/><use transform="matrix(0.05,0,0,0.05,12.950000000000001,0)" xlink:href="#ad"/><use transform="matrix(0.05,0,0,0.05,22.950000000000003,0)" xlink:href="#Y"/><use transform="matrix(0.05,0,0,0.05,27.950000000000003,0)" xlink:href="#ad"/><use transform="matrix(0.05,0,0,0.05,37.95,0)" xlink:href="#aJ"/><use transform="matrix(0.05,0,0,0.05,47.95,0)" xlink:href="#ad"/><use transform="matrix(0.05,0,0,0.05,57.95,0)" xlink:href="#ai"/><use transform="matrix(0.05,0,0,0.05,66.95,0)" xlink:href="#ab"/></g><g id="D"><use transform="matrix(0.05,0,0,0.05,0,0)" xlink:href="#R"/><use transform="matrix(0.05,0,0,0.05,12.950000000000001,0)" xlink:href="#S"/><use transform="matrix(0.05,0,0,0.05,21.950000000000003,0)" xlink:href="#Q"/></g><g id="E"><use transform="matrix(0.05,0,0,0.05,0,0)" xlink:href="#S"/><use transform="matrix(0.05,0,0,0.05,9,0)" xlink:href="#Q"/><use transform="matrix(0.05,0,0,0.05,19,0)" xlink:href="#U"/><use transform="matrix(0.05,0,0,0.05,28,0)" xlink:href="#at"/><use transform="matrix(0.05,0,0,0.05,38,0)" xlink:href="#M"/><use transform="matrix(0.05,0,0,0.05,43.95,0)" xlink:href="#Q"/></g><g id="F"><use transform="matrix(0.05,0,0,0.05,0,0)" xlink:href="#L"/><use transform="matrix(0.05,0,0,0.05,10,0)" xlink:href="#Q"/><use transform="matrix(0.05,0,0,0.05,20,0)" xlink:href="#aA"/><use transform="matrix(0.05,0,0,0.05,29,0)" xlink:href="#Q"/><use transform="matrix(0.05,0,0,0.05,39,0)" xlink:href="#as"/><use transform="matrix(0.05,0,0,0.05,42.95,0)" xlink:href="#O"/><use transform="matrix(0.05,0,0,0.05,52.95,0)" xlink:href="#P"/><use transform="matrix(0.05,0,0,0.05,62.95,0)" xlink:href="#ay"/><use transform="matrix(0.05,0,0,0.05,77.9,0)" xlink:href="#Q"/><use transform="matrix(0.05,0,0,0.05,87.9,0)" xlink:href="#K"/><use transform="matrix(0.05,0,0,0.05,97.9,0)" xlink:href="#I"/></g><g id="G"><use transform="matrix(0.05,0,0,0.05,0,0)" xlink:href="#S"/><use transform="matrix(0.05,0,0,0.05,9,0)" xlink:href="#I"/><use transform="matrix(0.05,0,0,0.05,14,0)" xlink:href="#J"/><use transform="matrix(0.05,0,0,0.05,24,0)" xlink:href="#K"/><use transform="matrix(0.05,0,0,0.05,34,0)" xlink:href="#L"/><use transform="matrix(0.05,0,0,0.05,44,0)" xlink:href="#J"/><use transform="matrix(0.05,0,0,0.05,54,0)" xlink:href="#M"/><use transform="matrix(0.05,0,0,0.05,59.95,0)" xlink:href="#L"/><use transform="matrix(0.05,0,0,0.05,69.95,0)" xlink:href="#S"/></g></defs></g></svg>