<svg xmlns="http://www.w3.org/2000/svg" xmlns:xlink="http://www.w3.org/1999/xlink" xmlns:lucid="lucid" width="1211.1" height="550"><g transform="translate(-95.75 -330)" lucid:page-tab-id="lXxCt~oi1B-U"><path d="M0 0h1360v1760H0z" fill="#fff"/><path d="M1239.75 369.75c0 10.9-8.84 19.75-19.75 19.75-10.9 0-19.75-8.84-19.75-19.75 0-10.9 8.84-19.75 19.75-19.75 10.9 0 19.75 8.84 19.75 19.75z" stroke="#000" stroke-width="2"/><path d="M1180 350h80v158h-80z" fill="none"/><path d="M1220 389.5v55.3l40 63.2m-40-63.2l-40 63.2m0-98.75h80" stroke="#000" stroke-width="2" fill="none"/><use xlink:href="#a" transform="matrix(1,0,0,1,1100,508) translate(55.25 14.6)"/><use xlink:href="#b" transform="matrix(1,0,0,1,1100,508) translate(98.25 14.6)"/><use xlink:href="#c" transform="matrix(1,0,0,1,1100,508) translate(146.85 14.6)"/><path d="M1180 440h-100" stroke="#000" stroke-width="2" fill="none"/><path/><path d="M1080 441h-.03l.03-1v-.38l-.03-.62h.03z"/><path d="M1080 440c0 33.14-35.82 60-80 60s-80-26.86-80-60 35.82-60 80-60 80 26.86 80 60z" stroke="#000" stroke-width="2"/><use xlink:href="#d" transform="matrix(1,0,0,1,920,380) translate(38.57999999999999 31.410000000000004)"/><use xlink:href="#e" transform="matrix(1,0,0,1,920,380) translate(48.529999999999994 53.01)"/><use xlink:href="#f" transform="matrix(1,0,0,1,920,380) translate(35.12999999999999 74.61)"/><use xlink:href="#g" transform="matrix(1,0,0,1,920,380) translate(54.555 96.21000000000001)"/><path d="M440 530c0 33.14-35.82 60-80 60s-80-26.86-80-60 35.82-60 80-60 80 26.86 80 60z" stroke="#000" stroke-width="2" fill="#fff"/><use xlink:href="#h" transform="matrix(1,0,0,1,280,470) translate(18.07999999999999 51.9)"/><use xlink:href="#i" transform="matrix(1,0,0,1,280,470) translate(78.98 51.9)"/><use xlink:href="#j" transform="matrix(1,0,0,1,280,470) translate(53.05499999999999 73.5)"/><path d="M200 530h80" stroke="#000" stroke-width="2" fill="none"/><path/><path d="M280 530v.38l.03.62H280v-2h.03z"/><path d="M179.75 459.75c0 10.9-8.84 19.75-19.75 19.75-10.9 0-19.75-8.84-19.75-19.75 0-10.9 8.84-19.75 19.75-19.75 10.9 0 19.75 8.84 19.75 19.75z" stroke="#000" stroke-width="2" fill="#fff"/><path d="M120 440h80v158h-80z" fill="none"/><path d="M160 479.5v55.3l40 63.2m-40-63.2L120 598m0-98.75h80" stroke="#000" stroke-width="2" fill="none"/><use xlink:href="#k" transform="matrix(1,0,0,1,40,598) translate(76.75 14.6)"/><use xlink:href="#c" transform="matrix(1,0,0,1,40,598) translate(125.35 14.6)"/><path d="M450.52 530.5l-1.05.1-4.53.3-4.92.1-.04-2 4.88-.1 4.44-.28 1-.1zm30.3-8.4l-3.05 1.45-3.16 1.33-3.18 1.2-3.27 1.05-3.37.94-3.5.82-.36.06-.38-1.96.3-.06 3.44-.8 3.3-.93 3.18-1.02 3.1-1.16 3.1-1.3 3.02-1.42zm14.28-8.73l-4.02 2.8-1.1.7-1.07-1.7 1.07-.66 3.95-2.74 1.14-.87h3.3zm36-28.55l-1.07.67-3.94 2.73-1.3 1.06h-3.15l3.24-2.66 4.02-2.8 1.1-.7zM559.45 473l-.3.06-3.44.8-3.3.93-3.18 1.02-3.1 1.16-3.1 1.3-3.02 1.42-.85-1.8 3.06-1.45 3.16-1.33 3.18-1.2 3.27-1.05 3.37-.94 3.5-.82.36-.06zm20.56-2l-4.88.1-4.44.28-1 .1-.22-1.98 1.05-.1 4.53-.3 4.92-.1z"/><path d="M440.07 531h-.1l.03-1zM580 470l-13.9 5.6-.65-9.25z"/><path d="M580.03 468.98L580 470v.38l.03.7-14.85 5.96-.82-12zM567 474.16l9.77-3.94-10.23-2.56z"/><use xlink:href="#l" transform="matrix(1,0,0,1,455.5972584813088,489.28971647524173) translate(0 14.4)"/><path d="M740 470c0 33.14-35.82 60-80 60s-80-26.86-80-60 35.82-60 80-60 80 26.86 80 60z" stroke="#000" stroke-width="2" fill="#fff"/><use xlink:href="#m" transform="matrix(1,0,0,1,580,410) translate(53.03 36.9)"/><use xlink:href="#n" transform="matrix(1,0,0,1,580,410) translate(35.12999999999999 58.5)"/><use xlink:href="#o" transform="matrix(1,0,0,1,580,410) translate(44.55499999999999 80.10000000000001)"/><use xlink:href="#p" transform="matrix(1,0,0,1,580,410) translate(100.45500000000001 80.10000000000001)"/><use xlink:href="#j" transform="matrix(1,0,0,1,580,410) translate(53.055 101.70000000000002)"/><path d="M750.2 470.8l-10.18.2-.04-2 10.2-.2zm30.6-2.38l-2.77.4-10.52 1.1-7.06.45-.13-2 7.05-.44 10.43-1.1 2.74-.4zm30.02-6.36l-5.94 1.66-8.76 2.06-5.2 1-.4-1.97 5.18-.98 8.68-2.03 3.2-.9h2.9zM920.02 441l-10.2.2-.03-2 10.18-.2z"/><path d="M754.36 474.35L740 470l14.17-4.92z"/><path d="M755.4 475.7l-15.43-4.67.03-1.03v-.38l-.03-.67 15.17-5.27zm-12.16-5.77l10.1 3.06-.14-6.53zM920.03 441l-.02-.3zm-.03-1l-.02-1z"/><use xlink:href="#q" transform="matrix(1,0,0,1,784.8121373748305,439.2863156984945) translate(0 14.4)"/><path d="M339.75 699.75c0 10.9-8.84 19.75-19.75 19.75-10.9 0-19.75-8.84-19.75-19.75 0-10.9 8.84-19.75 19.75-19.75 10.9 0 19.75 8.84 19.75 19.75z" stroke="#000" stroke-width="2" fill="#fff"/><path d="M280 680h80v158h-80z" fill="none"/><path d="M320 719.5v55.3l40 63.2m-40-63.2L280 838m0-98.75h80" stroke="#000" stroke-width="2" fill="none"/><g><use xlink:href="#r" transform="matrix(1,0,0,1,200,838) translate(29.299999999999997 14.6)"/><use xlink:href="#b" transform="matrix(1,0,0,1,200,838) translate(111.2 14.6)"/><use xlink:href="#s" transform="matrix(1,0,0,1,200,838) translate(159.8 14.6)"/></g><path d="M820 770c0 33.14-35.82 60-80 60s-80-26.86-80-60 35.82-60 80-60 80 26.86 80 60z" stroke="#000" stroke-width="2" fill="#fff"/><g><use xlink:href="#t" transform="matrix(1,0,0,1,660,710) translate(21.12999999999999 51.9)"/><use xlink:href="#u" transform="matrix(1,0,0,1,660,710) translate(84.98 51.9)"/><use xlink:href="#v" transform="matrix(1,0,0,1,660,710) translate(29.07999999999999 73.5)"/></g><path d="M360 770h299" stroke="#000" stroke-width="2" fill="none"/><path/><path d="M660 770v.38l.03.62H659v-2h1.03zM741.78 700.36l-.3 2.1-.27 2.45-.15 2.52-.05 2.6-2-.04.06-2.65.16-2.58.26-2.53.32-2.15zm11.43-26.34l-.27.37-1.72 2.47-1.53 2.4-1.36 2.38-1.2 2.33-1.1 2.3-.96 2.3-.85 2.27-.06.15-1.9-.62.06-.2.88-2.35 1-2.36 1.12-2.38 1.25-2.42 1.4-2.44 1.6-2.48 1.76-2.55.3-.4zm20.76-20.38l-.15.1-4.4 3.5-3.78 3.26-3.25 3.05-2.83 2.9-.1.1-1.48-1.35.12-.13 2.9-2.95 3.3-3.1 3.84-3.32 4.48-3.55.2-.13zm24.8-15.68l-5.42 2.97-7.9 4.78-3.48 2.3-1.1-1.66 3.5-2.32 7.98-4.83 5.45-3zm26.38-12.93l-7.2 3.17-10.53 5.22-.87-1.8 10.57-5.23 7.23-3.2zm17.88-7.9l-8.9 3.92-.8-1.83 8.3-3.66h5.12zm63.52-26.66l-8.3 3.5h-5.18l12.7-5.34zm26.94-12.1l-10.6 5.24-7.28 3.07-.77-1.84 7.23-3.04 10.53-5.22zm25.66-14.72l-3.5 2.33-7.98 4.83-5.44 3-.97-1.76 5.4-2.97 7.92-4.78 3.47-2.3zm22.9-18.86l-.12.13-2.9 2.95-3.3 3.1-3.84 3.32-4.48 3.55-.18.13-1.18-1.62.15-.1 4.4-3.5 3.78-3.26 3.25-3.05 2.83-2.9.1-.1zm15.72-25.2l-.06.2-.88 2.37-1 2.36-1.12 2.38-1.25 2.42-1.4 2.44-1.6 2.48-1.76 2.55-.3.38-1.6-1.2.27-.37 1.72-2.47 1.53-2.4 1.36-2.38 1.2-2.33 1.1-2.3.96-2.3.85-2.27.06-.16zm3.24-19.58l-.06 2.65-.16 2.58-.26 2.53-.32 2.15-1.98-.3.3-2.1.27-2.44.15-2.52.05-2.6z"/><path d="M740.03 710H739v-.13zM1002.84 514.73l-9.2-1.15L1000 500z"/><path d="M1000 500h1.02l3.06 15.9-11.93-1.5 6.76-14.43zm-4.87 12.76l6.46.8-2-10.35z"/><g><use xlink:href="#w" transform="matrix(1,0,0,1,813.4237668189868,593.9609811472047) translate(0 14.4)"/></g><defs><path d="M30 0v-248h33v221h125V0H30" id="x"/><path d="M141-36C126-15 110 5 73 4 37 3 15-17 15-53c-1-64 63-63 125-63 3-35-9-54-41-54-24 1-41 7-42 31l-33-3c5-37 33-52 76-52 45 0 72 20 72 64v82c-1 20 7 32 28 27v20c-31 9-61-2-59-35zM48-53c0 20 12 33 32 33 41-3 63-29 60-74-43 2-92-5-92 41" id="y"/><path d="M9 0v-24l116-142H16v-24h144v24L44-24h123V0H9" id="z"/><path d="M179-190L93 31C79 59 56 82 12 73V49c39 6 53-20 64-50L1-190h34L92-34l54-156h33" id="A"/><g id="a"><use transform="matrix(0.05,0,0,0.05,0,0)" xlink:href="#x"/><use transform="matrix(0.05,0,0,0.05,10,0)" xlink:href="#y"/><use transform="matrix(0.05,0,0,0.05,20,0)" xlink:href="#z"/><use transform="matrix(0.05,0,0,0.05,29,0)" xlink:href="#A"/></g><path d="M240 0l2-218c-23 76-54 145-80 218h-23L58-218 59 0H30v-248h44l77 211c21-75 51-140 76-211h43V0h-30" id="B"/><path d="M33 0v-248h34V0H33" id="C"/><path d="M185-189c-5-48-123-54-124 2 14 75 158 14 163 119 3 78-121 87-175 55-17-10-28-26-33-46l33-7c5 56 141 63 141-1 0-78-155-14-162-118-5-82 145-84 179-34 5 7 8 16 11 25" id="D"/><path d="M30-248c87 1 191-15 191 75 0 78-77 80-158 76V0H30v-248zm33 125c57 0 124 11 124-50 0-59-68-47-124-48v98" id="E"/><g id="b"><use transform="matrix(0.05,0,0,0.05,0,0)" xlink:href="#B"/><use transform="matrix(0.05,0,0,0.05,14.950000000000001,0)" xlink:href="#C"/><use transform="matrix(0.05,0,0,0.05,19.950000000000003,0)" xlink:href="#D"/><use transform="matrix(0.05,0,0,0.05,31.950000000000003,0)" xlink:href="#E"/></g><path d="M232-93c-1 65-40 97-104 97C67 4 28-28 28-90v-158h33c8 89-33 224 67 224 102 0 64-133 71-224h33v155" id="F"/><path d="M135-143c-3-34-86-38-87 0 15 53 115 12 119 90S17 21 10-45l28-5c4 36 97 45 98 0-10-56-113-15-118-90-4-57 82-63 122-42 12 7 21 19 24 35" id="G"/><path d="M100-194c63 0 86 42 84 106H49c0 40 14 67 53 68 26 1 43-12 49-29l28 8c-11 28-37 45-77 45C44 4 14-33 15-96c1-61 26-98 85-98zm52 81c6-60-76-77-97-28-3 7-6 17-6 28h103" id="H"/><path d="M114-163C36-179 61-72 57 0H25l-1-190h30c1 12-1 29 2 39 6-27 23-49 58-41v29" id="I"/><g id="c"><use transform="matrix(0.05,0,0,0.05,0,0)" xlink:href="#F"/><use transform="matrix(0.05,0,0,0.05,12.950000000000001,0)" xlink:href="#G"/><use transform="matrix(0.05,0,0,0.05,21.950000000000003,0)" xlink:href="#H"/><use transform="matrix(0.05,0,0,0.05,31.950000000000003,0)" xlink:href="#I"/></g><path fill="#fff" d="M33 0v-248h34V0H33" id="J"/><path fill="#fff" d="M117-194c89-4 53 116 60 194h-32v-121c0-31-8-49-39-48C34-167 62-67 57 0H25l-1-190h30c1 10-1 24 2 32 11-22 29-35 61-36" id="K"/><path fill="#fff" d="M96-169c-40 0-48 33-48 73s9 75 48 75c24 0 41-14 43-38l32 2c-6 37-31 61-74 61-59 0-76-41-82-99-10-93 101-131 147-64 4 7 5 14 7 22l-32 3c-4-21-16-35-41-35" id="L"/><path fill="#fff" d="M100-194c62-1 85 37 85 99 1 63-27 99-86 99S16-35 15-95c0-66 28-99 85-99zM99-20c44 1 53-31 53-75 0-43-8-75-51-75s-53 32-53 75 10 74 51 75" id="M"/><path fill="#fff" d="M114-163C36-179 61-72 57 0H25l-1-190h30c1 12-1 29 2 39 6-27 23-49 58-41v29" id="N"/><path fill="#fff" d="M100-194c63 0 86 42 84 106H49c0 40 14 67 53 68 26 1 43-12 49-29l28 8c-11 28-37 45-77 45C44 4 14-33 15-96c1-61 26-98 85-98zm52 81c6-60-76-77-97-28-3 7-6 17-6 28h103" id="O"/><path fill="#fff" d="M59-47c-2 24 18 29 38 22v24C64 9 27 4 27-40v-127H5v-23h24l9-43h21v43h35v23H59v120" id="P"/><path fill="#fff" d="M24 0v-261h32V0H24" id="Q"/><path fill="#fff" d="M179-190L93 31C79 59 56 82 12 73V49c39 6 53-20 64-50L1-190h34L92-34l54-156h33" id="R"/><g id="d"><use transform="matrix(0.05,0,0,0.05,0,0)" xlink:href="#J"/><use transform="matrix(0.05,0,0,0.05,5,0)" xlink:href="#K"/><use transform="matrix(0.05,0,0,0.05,15,0)" xlink:href="#L"/><use transform="matrix(0.05,0,0,0.05,24,0)" xlink:href="#M"/><use transform="matrix(0.05,0,0,0.05,34,0)" xlink:href="#N"/><use transform="matrix(0.05,0,0,0.05,39.95,0)" xlink:href="#N"/><use transform="matrix(0.05,0,0,0.05,45.900000000000006,0)" xlink:href="#O"/><use transform="matrix(0.05,0,0,0.05,55.900000000000006,0)" xlink:href="#L"/><use transform="matrix(0.05,0,0,0.05,64.9,0)" xlink:href="#P"/><use transform="matrix(0.05,0,0,0.05,69.9,0)" xlink:href="#Q"/><use transform="matrix(0.05,0,0,0.05,73.85000000000001,0)" xlink:href="#R"/></g><path fill="#fff" d="M205 0l-28-72H64L36 0H1l101-248h38L239 0h-34zm-38-99l-47-123c-12 45-31 82-46 123h93" id="S"/><path fill="#fff" d="M135-143c-3-34-86-38-87 0 15 53 115 12 119 90S17 21 10-45l28-5c4 36 97 45 98 0-10-56-113-15-118-90-4-57 82-63 122-42 12 7 21 19 24 35" id="T"/><path fill="#fff" d="M24-231v-30h32v30H24zM24 0v-190h32V0H24" id="U"/><path fill="#fff" d="M177-190C167-65 218 103 67 71c-23-6-38-20-44-43l32-5c15 47 100 32 89-28v-30C133-14 115 1 83 1 29 1 15-40 15-95c0-56 16-97 71-98 29-1 48 16 59 35 1-10 0-23 2-32h30zM94-22c36 0 50-32 50-73 0-42-14-75-50-75-39 0-46 34-46 75s6 73 46 73" id="V"/><g id="e"><use transform="matrix(0.05,0,0,0.05,0,0)" xlink:href="#S"/><use transform="matrix(0.05,0,0,0.05,12,0)" xlink:href="#T"/><use transform="matrix(0.05,0,0,0.05,21,0)" xlink:href="#T"/><use transform="matrix(0.05,0,0,0.05,30,0)" xlink:href="#U"/><use transform="matrix(0.05,0,0,0.05,33.95,0)" xlink:href="#V"/><use transform="matrix(0.05,0,0,0.05,43.95,0)" xlink:href="#K"/><use transform="matrix(0.05,0,0,0.05,53.95,0)" xlink:href="#T"/></g><path fill="#fff" d="M30-248c118-7 216 8 213 122C240-48 200 0 122 0H30v-248zM63-27c89 8 146-16 146-99s-60-101-146-95v194" id="W"/><path fill="#fff" d="M115-194c53 0 69 39 70 98 0 66-23 100-70 100C84 3 66-7 56-30L54 0H23l1-261h32v101c10-23 28-34 59-34zm-8 174c40 0 45-34 45-75 0-40-5-75-45-74-42 0-51 32-51 76 0 43 10 73 51 73" id="X"/><path fill="#fff" d="M84 4C-5 8 30-112 23-190h32v120c0 31 7 50 39 49 72-2 45-101 50-169h31l1 190h-30c-1-10 1-25-2-33-11 22-28 36-60 37" id="Y"/><g id="f"><use transform="matrix(0.05,0,0,0.05,0,0)" xlink:href="#W"/><use transform="matrix(0.05,0,0,0.05,12.950000000000001,0)" xlink:href="#U"/><use transform="matrix(0.05,0,0,0.05,16.900000000000002,0)" xlink:href="#T"/><use transform="matrix(0.05,0,0,0.05,25.900000000000002,0)" xlink:href="#P"/><use transform="matrix(0.05,0,0,0.05,30.900000000000002,0)" xlink:href="#N"/><use transform="matrix(0.05,0,0,0.05,36.85,0)" xlink:href="#U"/><use transform="matrix(0.05,0,0,0.05,40.800000000000004,0)" xlink:href="#X"/><use transform="matrix(0.05,0,0,0.05,50.800000000000004,0)" xlink:href="#Y"/><use transform="matrix(0.05,0,0,0.05,60.800000000000004,0)" xlink:href="#P"/><use transform="matrix(0.05,0,0,0.05,65.80000000000001,0)" xlink:href="#U"/><use transform="matrix(0.05,0,0,0.05,69.75000000000001,0)" xlink:href="#M"/><use transform="matrix(0.05,0,0,0.05,79.75000000000001,0)" xlink:href="#K"/></g><path fill="#fff" d="M233-177c-1 41-23 64-60 70L243 0h-38l-65-103H63V0H30v-248c88 3 205-21 203 71zM63-129c60-2 137 13 137-47 0-61-80-42-137-45v92" id="Z"/><path fill="#fff" d="M106-169C34-169 62-67 57 0H25v-261h32l-1 103c12-21 28-36 61-36 89 0 53 116 60 194h-32v-121c2-32-8-49-39-48" id="aa"/><g id="g"><use transform="matrix(0.05,0,0,0.05,0,0)" xlink:href="#Z"/><use transform="matrix(0.05,0,0,0.05,12.950000000000001,0)" xlink:href="#U"/><use transform="matrix(0.05,0,0,0.05,16.900000000000002,0)" xlink:href="#V"/><use transform="matrix(0.05,0,0,0.05,26.900000000000002,0)" xlink:href="#aa"/><use transform="matrix(0.05,0,0,0.05,36.900000000000006,0)" xlink:href="#P"/><use transform="matrix(0.05,0,0,0.05,41.900000000000006,0)" xlink:href="#T"/></g><path d="M84 4C-5 8 30-112 23-190h32v120c0 31 7 50 39 49 72-2 45-101 50-169h31l1 190h-30c-1-10 1-25-2-33-11 22-28 36-60 37" id="ab"/><path d="M115-194c53 0 69 39 70 98 0 66-23 100-70 100C84 3 66-7 56-30L54 0H23l1-261h32v101c10-23 28-34 59-34zm-8 174c40 0 45-34 45-75 0-40-5-75-45-74-42 0-51 32-51 76 0 43 10 73 51 73" id="ac"/><path d="M210-169c-67 3-38 105-44 169h-31v-121c0-29-5-50-35-48C34-165 62-65 56 0H25l-1-190h30c1 10-1 24 2 32 10-44 99-50 107 0 11-21 27-35 58-36 85-2 47 119 55 194h-31v-121c0-29-5-49-35-48" id="ad"/><path d="M24-231v-30h32v30H24zM24 0v-190h32V0H24" id="ae"/><path d="M59-47c-2 24 18 29 38 22v24C64 9 27 4 27-40v-127H5v-23h24l9-43h21v43h35v23H59v120" id="af"/><g id="h"><use transform="matrix(0.05,0,0,0.05,0,0)" xlink:href="#D"/><use transform="matrix(0.05,0,0,0.05,12,0)" xlink:href="#ab"/><use transform="matrix(0.05,0,0,0.05,22,0)" xlink:href="#ac"/><use transform="matrix(0.05,0,0,0.05,32,0)" xlink:href="#ad"/><use transform="matrix(0.05,0,0,0.05,46.95,0)" xlink:href="#ae"/><use transform="matrix(0.05,0,0,0.05,50.900000000000006,0)" xlink:href="#af"/></g><path d="M117-194c89-4 53 116 60 194h-32v-121c0-31-8-49-39-48C34-167 62-67 57 0H25l-1-190h30c1 10-1 24 2 32 11-22 29-35 61-36" id="ag"/><path d="M96-169c-40 0-48 33-48 73s9 75 48 75c24 0 41-14 43-38l32 2c-6 37-31 61-74 61-59 0-76-41-82-99-10-93 101-131 147-64 4 7 5 14 7 22l-32 3c-4-21-16-35-41-35" id="ah"/><path d="M85-194c31 0 48 13 60 33l-1-100h32l1 261h-30c-2-10 0-23-3-31C134-8 116 4 85 4 32 4 16-35 15-94c0-66 23-100 70-100zm9 24c-40 0-46 34-46 75 0 40 6 74 45 74 42 0 51-32 51-76 0-42-9-74-50-73" id="ai"/><g id="i"><use transform="matrix(0.05,0,0,0.05,0,0)" xlink:href="#C"/><use transform="matrix(0.05,0,0,0.05,5,0)" xlink:href="#ag"/><use transform="matrix(0.05,0,0,0.05,15,0)" xlink:href="#ah"/><use transform="matrix(0.05,0,0,0.05,24,0)" xlink:href="#ae"/><use transform="matrix(0.05,0,0,0.05,27.950000000000003,0)" xlink:href="#ai"/><use transform="matrix(0.05,0,0,0.05,37.95,0)" xlink:href="#H"/><use transform="matrix(0.05,0,0,0.05,47.95,0)" xlink:href="#ag"/><use transform="matrix(0.05,0,0,0.05,57.95,0)" xlink:href="#af"/></g><path d="M233-177c-1 41-23 64-60 70L243 0h-38l-65-103H63V0H30v-248c88 3 205-21 203 71zM63-129c60-2 137 13 137-47 0-61-80-42-137-45v92" id="aj"/><path d="M115-194c55 1 70 41 70 98S169 2 115 4C84 4 66-9 55-30l1 105H24l-1-265h31l2 30c10-21 28-34 59-34zm-8 174c40 0 45-34 45-75s-6-73-45-74c-42 0-51 32-51 76 0 43 10 73 51 73" id="ak"/><path d="M100-194c62-1 85 37 85 99 1 63-27 99-86 99S16-35 15-95c0-66 28-99 85-99zM99-20c44 1 53-31 53-75 0-43-8-75-51-75s-53 32-53 75 10 74 51 75" id="al"/><g id="j"><use transform="matrix(0.05,0,0,0.05,0,0)" xlink:href="#aj"/><use transform="matrix(0.05,0,0,0.05,12.950000000000001,0)" xlink:href="#H"/><use transform="matrix(0.05,0,0,0.05,22.950000000000003,0)" xlink:href="#ak"/><use transform="matrix(0.05,0,0,0.05,32.95,0)" xlink:href="#al"/><use transform="matrix(0.05,0,0,0.05,42.95,0)" xlink:href="#I"/><use transform="matrix(0.05,0,0,0.05,48.900000000000006,0)" xlink:href="#af"/></g><g id="k"><use transform="matrix(0.05,0,0,0.05,0,0)" xlink:href="#B"/><use transform="matrix(0.05,0,0,0.05,14.950000000000001,0)" xlink:href="#C"/><use transform="matrix(0.05,0,0,0.05,19.950000000000003,0)" xlink:href="#D"/><use transform="matrix(0.05,0,0,0.05,31.950000000000003,0)" xlink:href="#E"/></g><path d="M18-100v-36l175-74v27L42-118l151 64v27" id="am"/><path d="M24 0v-261h32V0H24" id="an"/><path d="M18-27v-27l151-64-151-65v-27l175 74v36" id="ao"/><g id="l"><use transform="matrix(0.05,0,0,0.05,0,0)" xlink:href="#am"/><use transform="matrix(0.05,0,0,0.05,10.5,0)" xlink:href="#am"/><use transform="matrix(0.05,0,0,0.05,21,0)" xlink:href="#C"/><use transform="matrix(0.05,0,0,0.05,26,0)" xlink:href="#ag"/><use transform="matrix(0.05,0,0,0.05,36,0)" xlink:href="#ah"/><use transform="matrix(0.05,0,0,0.05,45,0)" xlink:href="#an"/><use transform="matrix(0.05,0,0,0.05,48.95,0)" xlink:href="#ab"/><use transform="matrix(0.05,0,0,0.05,58.95,0)" xlink:href="#ai"/><use transform="matrix(0.05,0,0,0.05,68.95,0)" xlink:href="#H"/><use transform="matrix(0.05,0,0,0.05,78.95,0)" xlink:href="#G"/><use transform="matrix(0.05,0,0,0.05,87.95,0)" xlink:href="#ao"/><use transform="matrix(0.05,0,0,0.05,98.45,0)" xlink:href="#ao"/></g><path d="M205 0l-28-72H64L36 0H1l101-248h38L239 0h-34zm-38-99l-47-123c-12 45-31 82-46 123h93" id="ap"/><path d="M177-190C167-65 218 103 67 71c-23-6-38-20-44-43l32-5c15 47 100 32 89-28v-30C133-14 115 1 83 1 29 1 15-40 15-95c0-56 16-97 71-98 29-1 48 16 59 35 1-10 0-23 2-32h30zM94-22c36 0 50-32 50-73 0-42-14-75-50-75-39 0-46 34-46 75s6 73 46 73" id="aq"/><g id="m"><use transform="matrix(0.05,0,0,0.05,0,0)" xlink:href="#ap"/><use transform="matrix(0.05,0,0,0.05,12,0)" xlink:href="#G"/><use transform="matrix(0.05,0,0,0.05,21,0)" xlink:href="#G"/><use transform="matrix(0.05,0,0,0.05,30,0)" xlink:href="#ae"/><use transform="matrix(0.05,0,0,0.05,33.95,0)" xlink:href="#aq"/><use transform="matrix(0.05,0,0,0.05,43.95,0)" xlink:href="#ag"/></g><path d="M30-248c118-7 216 8 213 122C240-48 200 0 122 0H30v-248zM63-27c89 8 146-16 146-99s-60-101-146-95v194" id="ar"/><g id="n"><use transform="matrix(0.05,0,0,0.05,0,0)" xlink:href="#ar"/><use transform="matrix(0.05,0,0,0.05,12.950000000000001,0)" xlink:href="#ae"/><use transform="matrix(0.05,0,0,0.05,16.900000000000002,0)" xlink:href="#G"/><use transform="matrix(0.05,0,0,0.05,25.900000000000002,0)" xlink:href="#af"/><use transform="matrix(0.05,0,0,0.05,30.900000000000002,0)" xlink:href="#I"/><use transform="matrix(0.05,0,0,0.05,36.85,0)" xlink:href="#ae"/><use transform="matrix(0.05,0,0,0.05,40.800000000000004,0)" xlink:href="#ac"/><use transform="matrix(0.05,0,0,0.05,50.800000000000004,0)" xlink:href="#ab"/><use transform="matrix(0.05,0,0,0.05,60.800000000000004,0)" xlink:href="#af"/><use transform="matrix(0.05,0,0,0.05,65.80000000000001,0)" xlink:href="#ae"/><use transform="matrix(0.05,0,0,0.05,69.75000000000001,0)" xlink:href="#al"/><use transform="matrix(0.05,0,0,0.05,79.75000000000001,0)" xlink:href="#ag"/></g><path d="M106-169C34-169 62-67 57 0H25v-261h32l-1 103c12-21 28-36 61-36 89 0 53 116 60 194h-32v-121c2-32-8-49-39-48" id="as"/><g id="o"><use transform="matrix(0.05,0,0,0.05,0,0)" xlink:href="#aj"/><use transform="matrix(0.05,0,0,0.05,12.950000000000001,0)" xlink:href="#ae"/><use transform="matrix(0.05,0,0,0.05,16.900000000000002,0)" xlink:href="#aq"/><use transform="matrix(0.05,0,0,0.05,26.900000000000002,0)" xlink:href="#as"/><use transform="matrix(0.05,0,0,0.05,36.900000000000006,0)" xlink:href="#af"/><use transform="matrix(0.05,0,0,0.05,41.900000000000006,0)" xlink:href="#G"/></g><g id="p"><use transform="matrix(0.05,0,0,0.05,0,0)" xlink:href="#af"/><use transform="matrix(0.05,0,0,0.05,5,0)" xlink:href="#al"/></g><path d="M127-220V0H93v-220H8v-28h204v28h-85" id="at"/><g id="q"><use transform="matrix(0.05,0,0,0.05,0,0)" xlink:href="#am"/><use transform="matrix(0.05,0,0,0.05,10.5,0)" xlink:href="#am"/><use transform="matrix(0.05,0,0,0.05,21,0)" xlink:href="#at"/><use transform="matrix(0.05,0,0,0.05,31.950000000000003,0)" xlink:href="#as"/><use transform="matrix(0.05,0,0,0.05,41.95,0)" xlink:href="#I"/><use transform="matrix(0.05,0,0,0.05,47.900000000000006,0)" xlink:href="#H"/><use transform="matrix(0.05,0,0,0.05,57.900000000000006,0)" xlink:href="#y"/><use transform="matrix(0.05,0,0,0.05,67.9,0)" xlink:href="#af"/><use transform="matrix(0.05,0,0,0.05,72.9,0)" xlink:href="#H"/><use transform="matrix(0.05,0,0,0.05,82.9,0)" xlink:href="#ag"/><use transform="matrix(0.05,0,0,0.05,92.9,0)" xlink:href="#G"/><use transform="matrix(0.05,0,0,0.05,101.9,0)" xlink:href="#ao"/><use transform="matrix(0.05,0,0,0.05,112.4,0)" xlink:href="#ao"/></g><path d="M212-179c-10-28-35-45-73-45-59 0-87 40-87 99 0 60 29 101 89 101 43 0 62-24 78-52l27 14C228-24 195 4 139 4 59 4 22-46 18-125c-6-104 99-153 187-111 19 9 31 26 39 46" id="au"/><g id="r"><use transform="matrix(0.05,0,0,0.05,0,0)" xlink:href="#au"/><use transform="matrix(0.05,0,0,0.05,12.950000000000001,0)" xlink:href="#al"/><use transform="matrix(0.05,0,0,0.05,22.950000000000003,0)" xlink:href="#ad"/><use transform="matrix(0.05,0,0,0.05,37.900000000000006,0)" xlink:href="#ak"/><use transform="matrix(0.05,0,0,0.05,47.900000000000006,0)" xlink:href="#y"/><use transform="matrix(0.05,0,0,0.05,57.900000000000006,0)" xlink:href="#ag"/><use transform="matrix(0.05,0,0,0.05,67.9,0)" xlink:href="#A"/></g><g id="s"><use transform="matrix(0.05,0,0,0.05,0,0)" xlink:href="#ap"/><use transform="matrix(0.05,0,0,0.05,12,0)" xlink:href="#ai"/><use transform="matrix(0.05,0,0,0.05,22,0)" xlink:href="#ad"/><use transform="matrix(0.05,0,0,0.05,36.95,0)" xlink:href="#ae"/><use transform="matrix(0.05,0,0,0.05,40.900000000000006,0)" xlink:href="#ag"/></g><path d="M108 0H70L1-190h34L89-25l56-165h34" id="av"/><path d="M206 0h-36l-40-164L89 0H53L-1-190h32L70-26l43-164h34l41 164 42-164h31" id="aw"/><g id="t"><use transform="matrix(0.05,0,0,0.05,0,0)" xlink:href="#aj"/><use transform="matrix(0.05,0,0,0.05,12.950000000000001,0)" xlink:href="#H"/><use transform="matrix(0.05,0,0,0.05,22.950000000000003,0)" xlink:href="#av"/><use transform="matrix(0.05,0,0,0.05,31.950000000000003,0)" xlink:href="#ae"/><use transform="matrix(0.05,0,0,0.05,35.900000000000006,0)" xlink:href="#H"/><use transform="matrix(0.05,0,0,0.05,45.900000000000006,0)" xlink:href="#aw"/></g><g id="u"><use transform="matrix(0.05,0,0,0.05,0,0)" xlink:href="#aj"/><use transform="matrix(0.05,0,0,0.05,12.950000000000001,0)" xlink:href="#H"/><use transform="matrix(0.05,0,0,0.05,22.950000000000003,0)" xlink:href="#ak"/><use transform="matrix(0.05,0,0,0.05,32.95,0)" xlink:href="#al"/><use transform="matrix(0.05,0,0,0.05,42.95,0)" xlink:href="#I"/><use transform="matrix(0.05,0,0,0.05,48.900000000000006,0)" xlink:href="#af"/></g><g id="v"><use transform="matrix(0.05,0,0,0.05,0,0)" xlink:href="#D"/><use transform="matrix(0.05,0,0,0.05,12,0)" xlink:href="#ab"/><use transform="matrix(0.05,0,0,0.05,22,0)" xlink:href="#ac"/><use transform="matrix(0.05,0,0,0.05,32,0)" xlink:href="#ad"/><use transform="matrix(0.05,0,0,0.05,46.95,0)" xlink:href="#ae"/><use transform="matrix(0.05,0,0,0.05,50.900000000000006,0)" xlink:href="#G"/><use transform="matrix(0.05,0,0,0.05,59.900000000000006,0)" xlink:href="#G"/><use transform="matrix(0.05,0,0,0.05,68.9,0)" xlink:href="#ae"/><use transform="matrix(0.05,0,0,0.05,72.85000000000001,0)" xlink:href="#al"/><use transform="matrix(0.05,0,0,0.05,82.85000000000001,0)" xlink:href="#ag"/><use transform="matrix(0.05,0,0,0.05,92.85000000000001,0)" xlink:href="#G"/></g><g id="w"><use transform="matrix(0.05,0,0,0.05,0,0)" xlink:href="#am"/><use transform="matrix(0.05,0,0,0.05,10.5,0)" xlink:href="#am"/><use transform="matrix(0.05,0,0,0.05,21,0)" xlink:href="#E"/><use transform="matrix(0.05,0,0,0.05,33,0)" xlink:href="#I"/><use transform="matrix(0.05,0,0,0.05,38.95,0)" xlink:href="#H"/><use transform="matrix(0.05,0,0,0.05,48.95,0)" xlink:href="#av"/><use transform="matrix(0.05,0,0,0.05,57.95,0)" xlink:href="#H"/><use transform="matrix(0.05,0,0,0.05,67.95,0)" xlink:href="#ag"/><use transform="matrix(0.05,0,0,0.05,77.95,0)" xlink:href="#af"/><use transform="matrix(0.05,0,0,0.05,82.95,0)" xlink:href="#G"/><use transform="matrix(0.05,0,0,0.05,91.95,0)" xlink:href="#ao"/><use transform="matrix(0.05,0,0,0.05,102.45,0)" xlink:href="#ao"/></g></defs></g></svg>